<svg xmlns="http://www.w3.org/2000/svg" viewBox="0 0 103.07 58.64"><defs><style>.a{fill:#00a583;stroke:#00a583;stroke-width:1.52px;}.a,.b{stroke-linejoin:round;}.b{fill:#646363;stroke:#646363;stroke-width:1.5px;}</style></defs><title>Asset 1</title><path class="a" d="M71.88,57.88V44.11a14.91,14.91,0,0,1-3.64,1.08,26.1,26.1,0,0,1-4.78.42,16.31,16.31,0,0,1-6.22-1.14,13.08,13.08,0,0,1-4.72-3.22,14.34,14.34,0,0,1-3-5.05,20,20,0,0,1-1.05-6.7,22.41,22.41,0,0,1,1.05-7,15.72,15.72,0,0,1,3.19-5.62,14.59,14.59,0,0,1,5.35-3.76,19.53,19.53,0,0,1,7.61-1.35,28.69,28.69,0,0,1,6.73.69A20.6,20.6,0,0,1,76.87,14V57.88Zm0-42A12.2,12.2,0,0,0,69.12,15a17.82,17.82,0,0,0-3.55-.33,12.13,12.13,0,0,0-5.23,1.05,10.06,10.06,0,0,0-3.7,2.95,12.76,12.76,0,0,0-2.19,4.57,22.73,22.73,0,0,0-.72,5.92q0,6.31,2.83,9.86T65,42.61a18.81,18.81,0,0,0,3.82-.39,11.68,11.68,0,0,0,3-1Z"/><path class="a" d="M101,15.55a16.79,16.79,0,0,0-2.65-.42,23,23,0,0,0-2.86-.06,15.42,15.42,0,0,0-2.65.33,7.36,7.36,0,0,0-2.07.75V45H85.53V14q1.4-.54,2.86-1a26.51,26.51,0,0,1,3.15-.69q1.69-.27,3.67-.42t4.45-.15h1.44a9.25,9.25,0,0,1,1.2.06Z"/><path class="b" d="M7.21,3.68a2.64,2.64,0,0,1-.93,2A3.3,3.3,0,0,1,4,6.55a3.3,3.3,0,0,1-2.3-.84,2.64,2.64,0,0,1-.93-2,2.72,2.72,0,0,1,.93-2.06A3.24,3.24,0,0,1,4,.75a3.24,3.24,0,0,1,2.3.87A2.73,2.73,0,0,1,7.21,3.68ZM1.41,45V12.71h5.2V45Z"/><path class="b" d="M37,45V21.57a5.39,5.39,0,0,0-.83-3.05,6.48,6.48,0,0,0-2.18-2,9.68,9.68,0,0,0-3.07-1.11A19.19,19.19,0,0,0,27.31,15a23.08,23.08,0,0,0-4,.33,14.23,14.23,0,0,0-3.13.87V45H15V14.15a27.91,27.91,0,0,1,5.68-1.58,39.56,39.56,0,0,1,7.18-.63,28.43,28.43,0,0,1,5.5.51,14.93,14.93,0,0,1,4.52,1.62A8.31,8.31,0,0,1,40.94,17,8.45,8.45,0,0,1,42,21.45V45Z"/></svg>