<svg xmlns="http://www.w3.org/2000/svg" viewBox="0 0 734.67 25.76"><defs><style>.a{fill:#fff;}</style></defs><title>Asset 1</title><path class="a" d="M.22,11.73l1-.52q.62-.32,1.32-.62L3.92,10,5,9.59q.23-.1.84-.3t1.27-.37a9.89,9.89,0,0,1,1.26-.23,1.37,1.37,0,0,1,.85.1q.4.37.15.67a1,1,0,0,1-.62.37L7.26,10a3.5,3.5,0,0,0-.79.32q-.32.18-.72.45-.17.13-.59.55t-.82.91a5.34,5.34,0,0,0-.64.94q-.23.45,0,.65a.75.75,0,0,0,.65.07,5.24,5.24,0,0,0,.92-.3q.47-.2.87-.42a5.12,5.12,0,0,0,.54-.32,7.25,7.25,0,0,0,1.58-1.27.44.44,0,0,1,.65-.08.57.57,0,0,1,.22.69.92.92,0,0,1-.23.4l-.32.32a1.17,1.17,0,0,0-.25.42q-.13.23-.07.35a.32.32,0,0,0,.23.15,3.66,3.66,0,0,0,1.17-.07,13.1,13.1,0,0,0,1.46-.37,14.81,14.81,0,0,0,1.49-.55q.74-.32,1.27-.59a1.37,1.37,0,0,0,.37-.18,2.83,2.83,0,0,1,.49-.25,1.3,1.3,0,0,1,.49-.1.35.35,0,0,1,.33.2.27.27,0,0,1,0,.37,1.2,1.2,0,0,1-.42.28l-.54.22-.4.17-1.14.52L11.88,14q-.4.17-.87.4a7.47,7.47,0,0,1-1,.4A5.47,5.47,0,0,1,9,15a1.93,1.93,0,0,1-1-.1,1,1,0,0,1-.67-.65,1.72,1.72,0,0,1,0-.89l-.91.54-1.19.69A3.25,3.25,0,0,1,4,15,1.75,1.75,0,0,1,3,14.75a1.11,1.11,0,0,1-.5-.94A2,2,0,0,1,2.73,13a7.37,7.37,0,0,1,.69-1.07,8,8,0,0,1,.92-1,4.65,4.65,0,0,1,.94-.7,6.41,6.41,0,0,0-.75.3Q4,10.69,3.35,11L2,11.71l-1.32.65a.4.4,0,0,1-.34.05.46.46,0,0,1-.25-.17A.38.38,0,0,1,0,12,.34.34,0,0,1,.22,11.73Z"/><path class="a" d="M24.08,20.61q.91-.34,1.79-.62l1.79-.55.13-.23q.67-1.58,1.36-3.13t1.29-3.17a9.46,9.46,0,0,1-1.12.54,3.6,3.6,0,0,1-1.11.27,1.94,1.94,0,0,1-1-.17,1.37,1.37,0,0,1-.67-.8,1.55,1.55,0,0,1-.13-1,1.64,1.64,0,0,0-.35.2,2.74,2.74,0,0,1-.39.23l-.4.18a.72.72,0,0,1-.4.05.32.32,0,0,1-.35-.29.36.36,0,0,1,.22-.42q.84-.44,1.69-.84t1.73-.74A11.86,11.86,0,0,1,30,9.65a7.12,7.12,0,0,1,1.93-.13,1.26,1.26,0,0,1,.64.2q.23.17,0,.64a.63.63,0,0,1-.29.22,1,1,0,0,1-.32.05l-.62-.05-.55,0-.33,0-.64.07q-.37.05-.8.15a3.74,3.74,0,0,0-.84.3,1,1,0,0,0-.35.3,1.11,1.11,0,0,0-.2.42.61.61,0,0,0,0,.42.65.65,0,0,0,.4.3,2.09,2.09,0,0,0,1.49-.08,3.12,3.12,0,0,0,1.22-.89,1.54,1.54,0,0,0,.35-.44.79.79,0,0,1,.42-.37.51.51,0,0,1,.47,0,.46.46,0,0,1,.22.28,1,1,0,0,1,0,.42,1.07,1.07,0,0,1-.13.4q-.8,1.58-1.54,3.12t-1.48,3.12q1.17-1.51,2.48-2.88a13.24,13.24,0,0,1,1.27-1.24q.67-.57,1.41-1.14l1.44-1,.34-.15a.29.29,0,0,1,.33.05.29.29,0,0,1,.17.3.45.45,0,0,1-.17.37A21.24,21.24,0,0,0,30.89,17a16.72,16.72,0,0,0-1.47,2l1-.23q.84-.24,1.69-.4L33.87,18l.57-.13a.64.64,0,0,1,.74.67.61.61,0,0,1-.3.47,1.3,1.3,0,0,1-.59.13,4.72,4.72,0,0,0-.59,0l-1.84.23-1.56.27q-.79.13-1.56.3-.5.8-1,1.68t-.85,1.74q-.2.47-.39.94t-.45,1a.68.68,0,0,1-.55.39q-.39,0-.55-.49a.42.42,0,0,1,0-.35l.18-.32L26,22.89q.64-1.24,1.21-2.51l-1.78.57a1.71,1.71,0,0,0-.34.13,2.75,2.75,0,0,1-.42.17l-.42.1a.33.33,0,0,1-.3-.07.36.36,0,0,1-.18-.39A.37.37,0,0,1,24.08,20.61Z"/><path class="a" d="M35.95,11.7,37.34,11q.69-.37,1.49-.84a1.62,1.62,0,0,1,.39-1.21,1.33,1.33,0,0,1,1.16-.54.68.68,0,0,1,.6.47.81.81,0,0,1-.13.77,2.26,2.26,0,0,1-.7.67,1.13,1.13,0,0,0,.57.13,3.07,3.07,0,0,0,1.48-.25,9.79,9.79,0,0,0,1.37-.69q.6-.2.77.13a.8.8,0,0,1-.13.8q-.17.27-.39.69a6.39,6.39,0,0,0-.37.85,2.92,2.92,0,0,0-.17.84.75.75,0,0,0,.25.64q.17.2.89,0t1.93-.67q.4-.17.82-.39L48,12a1.79,1.79,0,0,0,.3-.15,1.6,1.6,0,0,1,.39-.17.57.57,0,0,1,.34,0c.1,0,.15.15.15.35a.4.4,0,0,1-.15.3,1.81,1.81,0,0,1-.34.23,2.37,2.37,0,0,1-.39.17l-.3.1-1.41.64-.92.5a7.66,7.66,0,0,1-1.12.5,3.31,3.31,0,0,1-1.11.2,1,1,0,0,1-.84-.44,1.1,1.1,0,0,1-.2-.52,1.94,1.94,0,0,1,0-.57,5.14,5.14,0,0,1,.13-.57q.08-.28.15-.55L43,10.89l-.69.17a6.71,6.71,0,0,1-1.12.18,5.65,5.65,0,0,1-1.16,0,1.13,1.13,0,0,1-.82-.44l-.94.5-.75.44-.62.37a2,2,0,0,0-.47.25.39.39,0,0,1-.47.05.42.42,0,0,1-.2-.37A.35.35,0,0,1,35.95,11.7Z"/><path class="a" d="M50.63,11.3a16.85,16.85,0,0,0,2.38,0q1.21-.07,2.38-.23a8.37,8.37,0,0,0,1.16-.25,3,3,0,0,1,1.19-.12.57.57,0,0,1,.52.49.52.52,0,0,1-.32.62,1.06,1.06,0,0,1-.47.17,4.49,4.49,0,0,1-.57,0H55.79q-1.31.1-2.55.1l-1.17,0-1.21,0a2,2,0,0,1-.35,0,.39.39,0,0,1-.28-.23.34.34,0,0,1,0-.4A.34.34,0,0,1,50.63,11.3Z"/><path class="a" d="M60,11.7a18.22,18.22,0,0,0,1.69-.82q.82-.45,1.69-.89L64,9.72a2.88,2.88,0,0,1,.74-.22.67.67,0,0,1,.54.1q.18.15.05.69a2.79,2.79,0,0,1-.39.84,6.86,6.86,0,0,0-.49.87l-.84,1.71a3.81,3.81,0,0,0-.23.4l-.2.4q1-1.14,2.08-2.21a21.35,21.35,0,0,1,2.28-2,12.14,12.14,0,0,1,1.61-1,2.87,2.87,0,0,1,1.81-.35.76.76,0,0,1,.65.44,1.19,1.19,0,0,1,0,.74,3.65,3.65,0,0,1-.35.8q-.24.4-.4.64l-1.41,1.78q.74-.17,1.44-.4t1.44-.54l.45-.25a7.29,7.29,0,0,1,.65-.33,1.26,1.26,0,0,1,.59-.13q.25,0,.25.35a.55.55,0,0,1-.29.44,4,4,0,0,1-.65.37q-.37.17-.74.3l-.54.2a10.54,10.54,0,0,1-1,.37l-1.71.57-1.74.55a8.39,8.39,0,0,1-1.09.28.39.39,0,0,1-.35-.18.67.67,0,0,1-.1-.42.75.75,0,0,1,.22-.45.89.89,0,0,1,.6-.25,1.66,1.66,0,0,0,1-.32,7.13,7.13,0,0,0,.84-.72A6.67,6.67,0,0,0,69.9,11.3l.3-.52a2.4,2.4,0,0,0,.27-.65,3,3,0,0,0-1.06.27,8.34,8.34,0,0,0-1,.55,10,10,0,0,0-1,.69l-.82.67a20.78,20.78,0,0,0-2,1.81q-1,1-1.83,2l-.94,1.07-2.25,4.66q-.2.37-.5,1a12.23,12.23,0,0,1-.69,1.31,4.87,4.87,0,0,1-.84,1.06,1.1,1.1,0,0,1-1,.32.69.69,0,0,1-.52-.39,1.12,1.12,0,0,1,0-.67,3.68,3.68,0,0,1,.28-.8q.2-.42.44-.82t.44-.7l.3-.44q.87-1.31,1.84-2.56t1.94-2.46q.74-1.51,1.37-3t1.24-3a5.69,5.69,0,0,0-1.26.5q-.62.34-1.16.57a4.06,4.06,0,0,0-.62.4.84.84,0,0,1-.69.2.35.35,0,0,1-.37-.32A.32.32,0,0,1,60,11.7Z"/><path class="a" d="M73.72,11.7a21.47,21.47,0,0,0,2-1q1-.57,1.94-1.24a18,18,0,0,1,1-1.81L79.82,5.9,81,4.34q.57-.79,1.17-1.56t1.09-1.36A5,5,0,0,1,84.58.3a2.78,2.78,0,0,1,.9-.29.62.62,0,0,1,.74.49,1.07,1.07,0,0,1,0,.72,3,3,0,0,1-.35.7,7.62,7.62,0,0,1-.5.67q-.27.32-.44.55a26.87,26.87,0,0,1-3,3.57,31.3,31.3,0,0,1-3.57,3.07q-.17.4-.39.85a8,8,0,0,0-.39,1,5.44,5.44,0,0,0-.23,1,2.53,2.53,0,0,0,0,.92l.67-.1.5-.05a1,1,0,0,0,.3,0,15.23,15.23,0,0,0,2-.54q1-.33,1.91-.74a2.81,2.81,0,0,0,.64-.27.6.6,0,0,1,.64,0q.37.27.1.49a2.19,2.19,0,0,1-.5.32L79.76,14l-1.11.42a3.45,3.45,0,0,1-1.11.25,1.09,1.09,0,0,1-.8-.15,1.12,1.12,0,0,1-.42-.57,1.92,1.92,0,0,1-.08-.77,4.29,4.29,0,0,1,.13-.79,11.7,11.7,0,0,1,.6-1.61,26,26,0,0,1-2.88,1.64.52.52,0,0,1-.55-.22C73.39,12,73.46,11.83,73.72,11.7Zm6.8-4.59a26,26,0,0,0,2.88-3.18,11.35,11.35,0,0,0,1.14-1.61,4.39,4.39,0,0,1,.2-.42A4.36,4.36,0,0,0,85,1.37,3.63,3.63,0,0,0,84.1,2l-.69.67A18.1,18.1,0,0,0,82,4.31q-.67.85-1.34,1.76-.37.54-.7,1.06t-.64,1.06c.2-.16.41-.33.62-.52Z"/><path class="a" d="M83.54,11.73l1-.52q.62-.32,1.32-.62L87.25,10l1.09-.44q.23-.1.84-.3t1.27-.37a9.89,9.89,0,0,1,1.26-.23,1.37,1.37,0,0,1,.85.1q.4.37.15.67a1,1,0,0,1-.62.37L90.58,10a3.5,3.5,0,0,0-.79.32q-.32.18-.72.45-.17.13-.59.55t-.82.91a5.34,5.34,0,0,0-.64.94q-.23.45,0,.65a.75.75,0,0,0,.65.07,5.24,5.24,0,0,0,.92-.3q.47-.2.87-.42a5.12,5.12,0,0,0,.54-.32,7.25,7.25,0,0,0,1.58-1.27.44.44,0,0,1,.65-.08.57.57,0,0,1,.22.69.92.92,0,0,1-.23.4l-.32.32a1.17,1.17,0,0,0-.25.42q-.13.23-.07.35a.32.32,0,0,0,.23.15A3.66,3.66,0,0,0,93,13.74a13.1,13.1,0,0,0,1.46-.37,14.81,14.81,0,0,0,1.49-.55q.74-.32,1.27-.59a1.37,1.37,0,0,0,.37-.18,2.83,2.83,0,0,1,.49-.25,1.3,1.3,0,0,1,.49-.1.35.35,0,0,1,.33.2.27.27,0,0,1,0,.37,1.2,1.2,0,0,1-.42.28l-.54.22-.4.17-1.14.52L95.21,14q-.4.17-.87.4a7.47,7.47,0,0,1-1,.4,5.47,5.47,0,0,1-1,.23,1.93,1.93,0,0,1-1-.1,1,1,0,0,1-.67-.65,1.72,1.72,0,0,1,0-.89l-.91.54-1.19.69a3.25,3.25,0,0,1-1.29.42,1.75,1.75,0,0,1-1.07-.27,1.11,1.11,0,0,1-.5-.94,2,2,0,0,1,.27-.85,7.37,7.37,0,0,1,.69-1.07,8,8,0,0,1,.92-1,4.65,4.65,0,0,1,.94-.7,6.41,6.41,0,0,0-.75.3q-.52.23-1.17.57l-1.37.69L84,12.37a.4.4,0,0,1-.34.05.46.46,0,0,1-.25-.17.38.38,0,0,1-.07-.27A.34.34,0,0,1,83.54,11.73Z"/><path class="a" d="M97.55,20.61q.91-.34,1.79-.62l1.79-.55.13-.23q.67-1.58,1.36-3.13t1.29-3.17a9.46,9.46,0,0,1-1.12.54,3.6,3.6,0,0,1-1.11.27,1.94,1.94,0,0,1-1-.17,1.37,1.37,0,0,1-.67-.8,1.55,1.55,0,0,1-.13-1,1.64,1.64,0,0,0-.35.2,2.74,2.74,0,0,1-.39.23l-.4.18a.72.72,0,0,1-.4.05.32.32,0,0,1-.35-.29.36.36,0,0,1,.22-.42q.84-.44,1.69-.84t1.73-.74a11.86,11.86,0,0,1,1.79-.5,7.12,7.12,0,0,1,1.93-.13,1.26,1.26,0,0,1,.64.2q.23.17,0,.64a.63.63,0,0,1-.29.22,1,1,0,0,1-.32.05l-.62-.05-.55,0-.33,0-.64.07q-.37.05-.8.15a3.74,3.74,0,0,0-.84.3,1,1,0,0,0-.35.3,1.11,1.11,0,0,0-.2.42.61.61,0,0,0,0,.42.65.65,0,0,0,.4.3,2.09,2.09,0,0,0,1.49-.08,3.12,3.12,0,0,0,1.22-.89,1.54,1.54,0,0,0,.35-.44.79.79,0,0,1,.42-.37.51.51,0,0,1,.47,0,.46.46,0,0,1,.22.28,1,1,0,0,1,0,.42,1.07,1.07,0,0,1-.13.4q-.8,1.58-1.54,3.12t-1.48,3.12q1.17-1.51,2.48-2.88a13.24,13.24,0,0,1,1.27-1.24q.67-.57,1.41-1.14l1.44-1,.34-.15a.29.29,0,0,1,.33.05.29.29,0,0,1,.17.3.45.45,0,0,1-.17.37A21.24,21.24,0,0,0,104.36,17a16.72,16.72,0,0,0-1.47,2l1-.23q.84-.24,1.69-.4l1.73-.34.57-.13a.64.64,0,0,1,.74.67.61.61,0,0,1-.3.47,1.3,1.3,0,0,1-.59.13,4.72,4.72,0,0,0-.59,0l-1.84.23-1.56.27q-.79.13-1.56.3-.5.8-1,1.68t-.85,1.74q-.2.47-.39.94t-.45,1a.68.68,0,0,1-.55.39q-.39,0-.55-.49a.42.42,0,0,1,0-.35l.18-.32.84-1.71q.64-1.24,1.21-2.51l-1.78.57a1.71,1.71,0,0,0-.34.13,2.75,2.75,0,0,1-.42.17l-.42.1a.33.33,0,0,1-.3-.07.36.36,0,0,1-.18-.39A.37.37,0,0,1,97.55,20.61Z"/><path class="a" d="M109.42,11.7a13.78,13.78,0,0,0,1.71-.65l1.68-.75a6.29,6.29,0,0,0,.62-.39,9.87,9.87,0,0,1,.85-.52,3.21,3.21,0,0,1,.82-.32.54.54,0,0,1,.64.74,2,2,0,0,1-.35.5,5,5,0,0,1-.5.47q-.27.22-.4.35a11.78,11.78,0,0,0-1,1.11,2,2,0,0,0-.47,1.27,3.11,3.11,0,0,0,1.27-.3l1.17-.5A33.52,33.52,0,0,0,118.67,11q.87-.54,1.58-1.07a.53.53,0,0,1,.62,0,.55.55,0,0,1,.25.6,1.51,1.51,0,0,1-.29.59,4.73,4.73,0,0,0-.39.59,3.35,3.35,0,0,0-.32.74,1.27,1.27,0,0,0,0,.84,1.18,1.18,0,0,0,.91,0l.87-.25A21,21,0,0,0,124.57,12l.59-.29a.33.33,0,0,1,.52.15q.17.3-.05.45a2.63,2.63,0,0,1-.45.25l-2.21,1-1.54.69a2.51,2.51,0,0,1-1.68.18.84.84,0,0,1-.69-.69,2,2,0,0,1,.08-1l.5-1.21q-.87.4-1.69.84t-1.69.8l-.87.49q-.5.28-1.06.54a5.42,5.42,0,0,1-1.09.37,1.55,1.55,0,0,1-.94-.05.54.54,0,0,1-.42-.52,2.18,2.18,0,0,1,.18-.89,6.29,6.29,0,0,1,.57-1.07q.37-.57.77-1.11l-.8.37q-1.37.5-2,.77a4.86,4.86,0,0,1-.94.34.31.31,0,0,1-.32,0,.57.57,0,0,1-.17-.23.37.37,0,0,1,0-.27A.36.36,0,0,1,109.42,11.7Z"/><path class="a" d="M125.24,11.7q.6-.3,1.26-.67a11.14,11.14,0,0,1,1.32-.64,3.42,3.42,0,0,1,1.24-1.26,5.07,5.07,0,0,1,1.71-.65,4.45,4.45,0,0,1,1.09,0,1.33,1.33,0,0,1,1,.5.53.53,0,0,1,.12.57,1.57,1.57,0,0,1-.4.57,3.94,3.94,0,0,1-.64.49l-.52.32a4.79,4.79,0,0,1-1.32.55,4.27,4.27,0,0,1-1.46.12h-.13a1.88,1.88,0,0,0,.6,1.14,2.92,2.92,0,0,0,1.11.59,4,4,0,0,0,1.32.15,10.06,10.06,0,0,0,1.26-.13,14.79,14.79,0,0,0,1.58-.42,14.49,14.49,0,0,0,1.51-.59l.69-.32a7.09,7.09,0,0,0,.65-.32.64.64,0,0,1,.49.07q.25.13.05.44a.86.86,0,0,1-.47.37l-.54.2-1.68.74a28.55,28.55,0,0,1-3,1,5,5,0,0,1-1.36.08,3.93,3.93,0,0,1-1.27-.3,3.35,3.35,0,0,1-1.06-.72,2.65,2.65,0,0,1-.67-1.21q-.07-.27-.12-.54a1.08,1.08,0,0,1,0-.5,6.44,6.44,0,0,0-.72.39l-.62.39a2.48,2.48,0,0,0-.44.25.45.45,0,0,1-.54,0A.38.38,0,0,1,125,12,.31.31,0,0,1,125.24,11.7Zm3.42-.94a3.88,3.88,0,0,0,1.56-.4,4.89,4.89,0,0,0,1.32-.94,1.89,1.89,0,0,0-.92-.1,2.59,2.59,0,0,0-1.53.79A2.09,2.09,0,0,0,128.66,10.76Z"/><path class="a" d="M150.41,10.19a13.44,13.44,0,0,1,1.39-.47l1.39-.4a4.19,4.19,0,0,1,1-.37,1.22,1.22,0,0,1,1,.13.5.5,0,0,1,.2.54.64.64,0,0,1,.47.13,1.06,1.06,0,0,1,.3,1,3.6,3.6,0,0,1-.5,1.17,1.57,1.57,0,0,0,.4.33,2,2,0,0,0,1.17.3,5.19,5.19,0,0,0,1.21-.2,2.23,2.23,0,0,0,.5-.2l.69-.32a2.89,2.89,0,0,1,.65-.2q.3,0,.4.15a.37.37,0,0,1,0,.45,1.24,1.24,0,0,1-.45.3l-.59.22-.4.13a7.64,7.64,0,0,1-1.06.27,6.1,6.1,0,0,1-1.09.1,3.59,3.59,0,0,1-1-.15,2,2,0,0,1-.87-.52l-.74.77a10.55,10.55,0,0,1-.9.74,6,6,0,0,1-1.06.62,3.81,3.81,0,0,1-1.16.32,2.2,2.2,0,0,1-1.14-.17,1.24,1.24,0,0,1-.79-.79,1.71,1.71,0,0,1,.08-1,4.3,4.3,0,0,1,.57-1,7.22,7.22,0,0,1,.7-.84l.64-.64q-.77.27-1.51.6t-1.47.7l-.33.18-.4.22a2.15,2.15,0,0,1-.39.15.42.42,0,0,1-.52-.42.42.42,0,0,1,.23-.33Zm1.14,1.17-.49.5a5.62,5.62,0,0,0-.62.77,1.85,1.85,0,0,0-.32.75q-.05.35.42.42a4.11,4.11,0,0,0,1.66-.07,3.36,3.36,0,0,0,1.42-.77l.5-.5a2.4,2.4,0,0,0,.4-.54,2.84,2.84,0,0,1-.18-.94,1.36,1.36,0,0,1,.25-.87,5,5,0,0,0-1.69.4A5.77,5.77,0,0,0,151.55,11.36Z"/><path class="a" d="M160,11.73l1.27-.69q.91-.49,1.86-.92a8.47,8.47,0,0,1,1.76-.6q.8-.17,1,.27a.66.66,0,0,1-.08.65,2.83,2.83,0,0,0-.32.59l-.4.94a8.21,8.21,0,0,1,.87-.47l.87-.4q1.07-.57,2.21-1.21a10.85,10.85,0,0,1,2.31-1,1.65,1.65,0,0,1,.77,0,1,1,0,0,1,.52.3.85.85,0,0,1,.18.57,1.38,1.38,0,0,1-.27.75,5.57,5.57,0,0,1-.65.84q-.35.37-.72.8a2,2,0,0,1-.23.27q-.17.17-.35.39t-.34.44a1.08,1.08,0,0,0-.18.39,1.28,1.28,0,0,0,.59,0,5.34,5.34,0,0,0,.7-.18q.35-.12.67-.25l.49-.2,1.37-.6.35-.2.45-.25.45-.22a.9.9,0,0,1,.35-.1.27.27,0,0,1,.3.3.53.53,0,0,1-.27.47c-.2.11-.41.22-.64.32l-.7.32q-.47.27-.91.47l-.9.44-.85.39a6,6,0,0,1-1.17.37,1.94,1.94,0,0,1-1,0q-.44-.15-.44-.82a1.12,1.12,0,0,1,.17-.6,4.14,4.14,0,0,1,.39-.52,6.35,6.35,0,0,1,.47-.49l.45-.44a7.41,7.41,0,0,0,.67-.7,2.72,2.72,0,0,0,.6-1,7,7,0,0,0-1.83.47,18.5,18.5,0,0,0-1.69.77q-1,.47-2,1.06a7.78,7.78,0,0,0-1.81,1.39.65.65,0,0,1-.35.15.64.64,0,0,1-.35-.07.54.54,0,0,1-.25-.25.63.63,0,0,1,0-.44,1,1,0,0,1,.5-.54,6.35,6.35,0,0,0,.33-.62,2,2,0,0,1,.23-.42l.13-.49a3.93,3.93,0,0,0,.1-.52q-.37.1-.74.23l-.57.2-.94.39q-.47.18-.94.42l-.49.27a2.77,2.77,0,0,1-.49.23.53.53,0,0,1-.39.05.64.64,0,0,1-.29-.15.29.29,0,0,1-.08-.25C159.76,11.88,159.84,11.8,160,11.73Z"/><path class="a" d="M188.12,7.57q.6,0,1.21,0t1.21-.08q.94-1.44,2-3A12.07,12.07,0,0,1,195,1.88l.55-.34a1.47,1.47,0,0,1,.59-.2.56.56,0,0,1,.5.27.64.64,0,0,1,.07.57A3,3,0,0,1,196,3.47q-.57.62-1,1.12-.5.67-1.06,1.31t-1.12,1.24l2-.47,3.32-1a2.4,2.4,0,0,1,.49-.15.44.44,0,0,1,.45.22.56.56,0,0,1,.1.55.6.6,0,0,1-.37.39,21.2,21.2,0,0,1-3.22.84q-1.68.3-3.28.5l-.47.1q-.4.37-.84.74l-.91.74a4.78,4.78,0,0,0-.4.69l-.34.72a2.7,2.7,0,0,0-.2.5q-.13.4-.25.82t-.18.77q-.07.35,0,.35a2.87,2.87,0,0,0,1.52-.08l1.42-.42,1.54-.54q.77-.27,1.54-.6a2.5,2.5,0,0,1,.52-.1q.32,0,.28.4c0,.2-.16.34-.42.42a6.2,6.2,0,0,0-.62.22l-2.38.87-1.12.47a10.39,10.39,0,0,1-1.44.49,2.78,2.78,0,0,1-1.31.05,1,1,0,0,1-.72-.91,3,3,0,0,1,.29-1.52q.35-.75.82-1.63a25.44,25.44,0,0,1-3.22,1.84.37.37,0,0,1-.33,0,.44.44,0,0,1-.2-.2.36.36,0,0,1,0-.29.47.47,0,0,1,.22-.25,25.35,25.35,0,0,0,2.26-1.17,23.29,23.29,0,0,0,2.13-1.41l.47-.8q-.5,0-1.11.13a1.5,1.5,0,0,1-1-.1.38.38,0,0,1-.18-.47A.37.37,0,0,1,188.12,7.57Zm6.07-3.18a5.52,5.52,0,0,0,.32-.5l.32-.54q-.34.34-.62.67t-.49.54q-.6.67-1.17,1.36a12.33,12.33,0,0,0-1,1.46A19.84,19.84,0,0,0,194.18,4.39Z"/><path class="a" d="M195.19,11.7q2.11-1,4.09-2.18a18,18,0,0,0,3.42-2.58l1.21-2.18q.57-1,1.24-2a5.85,5.85,0,0,1,1.61-1.66,4.1,4.1,0,0,1,.67-.28,2.52,2.52,0,0,1,.82-.15.82.82,0,0,1,.6.22q.22.22,0,.82a3.3,3.3,0,0,1-.49.89,9.59,9.59,0,0,1-.7.82q-.39.4-.79.75a8.25,8.25,0,0,0-.7.69q-.7.67-1.44,1.34t-1.51,1.27l-.39.72q-.18.35-.35.72l-.6,1.14q-.3.57-.67,1.14,1-.6,2.13-1.12t2.16-1a4,4,0,0,1,.85-.33,1.74,1.74,0,0,1,1,0,.92.92,0,0,1,.64.64,1.18,1.18,0,0,1-.13.94,4.66,4.66,0,0,1-.52.8l-.65.82a5.26,5.26,0,0,0-.57.87,1.92,1.92,0,0,0-.23.89,6.37,6.37,0,0,0,1.83-.52q1-.42,1.73-.82.27-.13.62-.35a3.65,3.65,0,0,1,.62-.32.33.33,0,0,1,.32,0,.57.57,0,0,1,.23.18.41.41,0,0,1,.07.29.34.34,0,0,1-.22.27,16.11,16.11,0,0,1-1.51.79A16.22,16.22,0,0,0,208,14l-.7.4a4.11,4.11,0,0,1-.82.37,2.17,2.17,0,0,1-.84.1,1,1,0,0,1-.72-.4.93.93,0,0,1-.22-.64,1.71,1.71,0,0,1,.17-.65,3.92,3.92,0,0,1,.37-.62l.39-.54q.37-.47.72-1a2.54,2.54,0,0,0,.42-1.11,1.79,1.79,0,0,0-.59,0,5.36,5.36,0,0,0-.65.18l-.65.25a5,5,0,0,1-.55.2q-.74.34-1.42.72t-1.36.82q-1.07.77-1.51,1.16l-.64.55A.92.92,0,0,1,199,14a.54.54,0,0,1-.49-.13.52.52,0,0,1-.23-.45.85.85,0,0,1,.2-.42,19.46,19.46,0,0,0,1.79-2.15,23.78,23.78,0,0,0,1.49-2.35q-.9.7-1.83,1.31T198.1,11q-.57.37-1.12.67l-1.12.6-.35.15a.31.31,0,0,1-.35-.05A.45.45,0,0,1,195,12,.35.35,0,0,1,195.19,11.7Zm10.63-7.61q.44-.44.89-.94A5,5,0,0,0,207.46,2a4.5,4.5,0,0,0-1.37,1A12.6,12.6,0,0,0,205,4.39l-.7,1.17.75-.74Z"/><path class="a" d="M210.64,11.7q.6-.3,1.26-.67a11.14,11.14,0,0,1,1.32-.64,3.42,3.42,0,0,1,1.24-1.26,5.07,5.07,0,0,1,1.71-.65,4.45,4.45,0,0,1,1.09,0,1.33,1.33,0,0,1,1,.5.53.53,0,0,1,.12.57,1.57,1.57,0,0,1-.4.57,3.94,3.94,0,0,1-.64.49l-.52.32a4.79,4.79,0,0,1-1.32.55,4.27,4.27,0,0,1-1.46.12h-.13a1.88,1.88,0,0,0,.6,1.14,2.92,2.92,0,0,0,1.11.59,4,4,0,0,0,1.32.15,10.06,10.06,0,0,0,1.26-.13,14.79,14.79,0,0,0,1.58-.42,14.49,14.49,0,0,0,1.51-.59l.69-.32a7.09,7.09,0,0,0,.65-.32.64.64,0,0,1,.49.07q.25.13.05.44a.86.86,0,0,1-.47.37l-.54.2-1.68.74a28.55,28.55,0,0,1-3,1,5,5,0,0,1-1.36.08,3.93,3.93,0,0,1-1.27-.3,3.35,3.35,0,0,1-1.06-.72,2.65,2.65,0,0,1-.67-1.21q-.07-.27-.12-.54a1.08,1.08,0,0,1,0-.5,6.44,6.44,0,0,0-.72.39l-.62.39a2.48,2.48,0,0,0-.44.25.45.45,0,0,1-.54,0,.38.38,0,0,1-.18-.37A.31.31,0,0,1,210.64,11.7Zm3.42-.94a3.88,3.88,0,0,0,1.56-.4,4.89,4.89,0,0,0,1.32-.94,1.89,1.89,0,0,0-.92-.1,2.59,2.59,0,0,0-1.53.79A2.09,2.09,0,0,0,214.06,10.76Z"/><path class="a" d="M232.39,11.7q2.11-1,4.09-2.18a18,18,0,0,0,3.42-2.58l1.21-2.18q.57-1,1.24-2A5.85,5.85,0,0,1,244,1.11a4.1,4.1,0,0,1,.67-.28,2.52,2.52,0,0,1,.82-.15.82.82,0,0,1,.6.22q.22.22,0,.82a3.3,3.3,0,0,1-.49.89,9.59,9.59,0,0,1-.7.82q-.39.4-.79.75a8.25,8.25,0,0,0-.7.69q-.7.67-1.44,1.34t-1.51,1.27l-.39.72q-.18.35-.35.72l-.6,1.14q-.3.57-.67,1.14,1-.6,2.13-1.12t2.16-1a4,4,0,0,1,.85-.33,1.74,1.74,0,0,1,1,0,.92.92,0,0,1,.64.64,1.18,1.18,0,0,1-.13.94,4.66,4.66,0,0,1-.52.8l-.65.82a5.26,5.26,0,0,0-.57.87,1.92,1.92,0,0,0-.23.89,6.37,6.37,0,0,0,1.83-.52q1-.42,1.73-.82.27-.13.62-.35a3.65,3.65,0,0,1,.62-.32.33.33,0,0,1,.32,0,.57.57,0,0,1,.23.18.41.41,0,0,1,.07.29.34.34,0,0,1-.22.27,16.11,16.11,0,0,1-1.51.79,16.22,16.22,0,0,0-1.51.79l-.7.4a4.11,4.11,0,0,1-.82.37,2.17,2.17,0,0,1-.84.1,1,1,0,0,1-.72-.4.93.93,0,0,1-.22-.64,1.71,1.71,0,0,1,.17-.65,3.92,3.92,0,0,1,.37-.62l.39-.54q.37-.47.72-1A2.54,2.54,0,0,0,244,9.89a1.79,1.79,0,0,0-.59,0,5.36,5.36,0,0,0-.65.18l-.65.25a5,5,0,0,1-.55.2q-.74.34-1.42.72t-1.36.82q-1.07.77-1.51,1.16l-.64.55a.92.92,0,0,1-.39.23.54.54,0,0,1-.49-.13.52.52,0,0,1-.23-.45.85.85,0,0,1,.2-.42,19.46,19.46,0,0,0,1.79-2.15A23.78,23.78,0,0,0,239,8.55q-.9.7-1.83,1.31T235.31,11q-.57.37-1.12.67l-1.12.6-.35.15a.31.31,0,0,1-.35-.05.45.45,0,0,1-.17-.37A.35.35,0,0,1,232.39,11.7ZM243,4.09q.44-.44.89-.94A5,5,0,0,0,244.66,2a4.5,4.5,0,0,0-1.37,1,12.6,12.6,0,0,0-1.07,1.32l-.7,1.17.75-.74Z"/><path class="a" d="M247.84,11.7q.6-.3,1.26-.67a11.14,11.14,0,0,1,1.32-.64,3.42,3.42,0,0,1,1.24-1.26,5.07,5.07,0,0,1,1.71-.65,4.45,4.45,0,0,1,1.09,0,1.33,1.33,0,0,1,1,.5.53.53,0,0,1,.12.57,1.57,1.57,0,0,1-.4.57,3.94,3.94,0,0,1-.64.49l-.52.32a4.79,4.79,0,0,1-1.32.55,4.27,4.27,0,0,1-1.46.12h-.13a1.88,1.88,0,0,0,.6,1.14,2.92,2.92,0,0,0,1.11.59,4,4,0,0,0,1.32.15,10.06,10.06,0,0,0,1.26-.13,14.79,14.79,0,0,0,1.58-.42,14.49,14.49,0,0,0,1.51-.59l.69-.32a7.09,7.09,0,0,0,.65-.32.64.64,0,0,1,.49.07q.25.13.05.44a.86.86,0,0,1-.47.37l-.54.2-1.68.74a28.55,28.55,0,0,1-3,1,5,5,0,0,1-1.36.08,3.93,3.93,0,0,1-1.27-.3,3.35,3.35,0,0,1-1.06-.72,2.65,2.65,0,0,1-.67-1.21q-.07-.27-.12-.54a1.08,1.08,0,0,1,0-.5,6.44,6.44,0,0,0-.72.39l-.62.39a2.48,2.48,0,0,0-.44.25.45.45,0,0,1-.54,0,.38.38,0,0,1-.18-.37A.31.31,0,0,1,247.84,11.7Zm3.42-.94a3.88,3.88,0,0,0,1.56-.4,4.89,4.89,0,0,0,1.32-.94,1.89,1.89,0,0,0-.92-.1,2.59,2.59,0,0,0-1.53.79A2.09,2.09,0,0,0,251.26,10.76Z"/><path class="a" d="M259.64,11.73l1-.52q.62-.32,1.32-.62l1.36-.57,1.09-.44q.23-.1.84-.3t1.27-.37a9.89,9.89,0,0,1,1.26-.23,1.37,1.37,0,0,1,.85.1q.4.37.15.67a1,1,0,0,1-.62.37l-1.51.17a3.5,3.5,0,0,0-.79.32q-.32.18-.72.45-.17.13-.59.55t-.82.91a5.34,5.34,0,0,0-.64.94q-.23.45,0,.65a.75.75,0,0,0,.65.07,5.24,5.24,0,0,0,.92-.3q.47-.2.87-.42a5.12,5.12,0,0,0,.54-.32,7.25,7.25,0,0,0,1.58-1.27.44.44,0,0,1,.65-.08.57.57,0,0,1,.22.69.92.92,0,0,1-.23.4l-.32.32a1.17,1.17,0,0,0-.25.42q-.13.23-.07.35a.32.32,0,0,0,.23.15,3.66,3.66,0,0,0,1.17-.07,13.1,13.1,0,0,0,1.46-.37,14.81,14.81,0,0,0,1.49-.55q.74-.32,1.27-.59a1.37,1.37,0,0,0,.37-.18,2.83,2.83,0,0,1,.49-.25,1.3,1.3,0,0,1,.49-.1.35.35,0,0,1,.33.2.27.27,0,0,1,0,.37,1.2,1.2,0,0,1-.42.28l-.54.22-.4.17-1.14.52-1.17.52q-.4.17-.87.4a7.47,7.47,0,0,1-1,.4,5.47,5.47,0,0,1-1,.23,1.93,1.93,0,0,1-1-.1,1,1,0,0,1-.67-.65,1.72,1.72,0,0,1,0-.89l-.91.54-1.19.69a3.25,3.25,0,0,1-1.29.42,1.75,1.75,0,0,1-1.07-.27,1.11,1.11,0,0,1-.5-.94,2,2,0,0,1,.27-.85,7.37,7.37,0,0,1,.69-1.07,8,8,0,0,1,.92-1,4.65,4.65,0,0,1,.94-.7,6.41,6.41,0,0,0-.75.3q-.52.23-1.17.57l-1.37.69-1.32.65a.4.4,0,0,1-.34.05.46.46,0,0,1-.25-.17.38.38,0,0,1-.07-.27A.34.34,0,0,1,259.64,11.73Z"/><path class="a" d="M274.49,11.7a10.52,10.52,0,0,0,1.66-.74q.79-.44,1.63-.8a6.68,6.68,0,0,1,1.11-.44L280,9.38a4.34,4.34,0,0,1,1.44-.23.61.61,0,0,1,.5.27.49.49,0,0,1,0,.57.58.58,0,0,1-.3.28,1.4,1.4,0,0,1-.45.1l-.5,0h-.45a2.47,2.47,0,0,0-1,.29,4.92,4.92,0,0,0-.92.62,4.33,4.33,0,0,0-1,1.07l-.15.29q-.12.22-.22.45a2.82,2.82,0,0,0-.15.44.3.3,0,0,0,.05.3.33.33,0,0,0,.32.05,1.76,1.76,0,0,0,.44-.17l.4-.23.25-.15a12.59,12.59,0,0,0,1.07-.7l1-.74L282,10.49q.57-1.17,1.21-2.33t1.31-2.3l.94-1.54q.47-.77,1-1.54t1.11-1.46A4.2,4.2,0,0,1,289,.17l.45-.13a.78.78,0,0,1,.45,0,.88.88,0,0,1,.54.27.82.82,0,0,1,.18.49,2,2,0,0,1-.07.6,2.28,2.28,0,0,1-.22.55A14,14,0,0,1,289,3.79l-1.46,1.74q-1.14,1.37-2.3,2.66t-2.43,2.5l-.32.91-.32.9-.15.4c-.06.16-.11.32-.17.5a4.71,4.71,0,0,0-.13.54,1.18,1.18,0,0,0,0,.44,4.07,4.07,0,0,0,1.22-.27q.62-.23,1.16-.47a16.87,16.87,0,0,0,1.89-.89l1.83-1a.62.62,0,0,1,.28-.08,1.12,1.12,0,0,1,.34,0,.22.22,0,0,1,.18.17.54.54,0,0,1-.1.37.93.93,0,0,1-.5.39l-.57.22q-.94.47-1.88,1l-1.84,1-.6.32a5.1,5.1,0,0,1-.7.32,2.11,2.11,0,0,1-.72.13,1.15,1.15,0,0,1-.65-.2,1,1,0,0,1-.39-.57,1.93,1.93,0,0,1,0-.72,3.93,3.93,0,0,1,.17-.74q.12-.35.22-.62l.07-.25a2.94,2.94,0,0,1,.1-.29l-1.68,1.44q-.27.27-.6.55a4.62,4.62,0,0,1-.72.5,3.15,3.15,0,0,1-.79.32,1.62,1.62,0,0,1-.8,0,1.12,1.12,0,0,1-.82-.64,1.46,1.46,0,0,1,0-1,4.17,4.17,0,0,1,.59-1.09,8.49,8.49,0,0,1,.87-1l-.84.33q-.34.17-.8.45a2,2,0,0,1-.84.32.33.33,0,0,1-.33,0,.43.43,0,0,1-.18-.22.49.49,0,0,1,0-.28A.31.31,0,0,1,274.49,11.7ZM284,8.41q.87-.9,1.71-1.86t1.61-2l.67-.92q.33-.45.64-1a7.19,7.19,0,0,1,.39-.64,2.24,2.24,0,0,0,.35-.8,2.09,2.09,0,0,0-.87.64l-.64.74a21.25,21.25,0,0,0-1.44,1.74q-.67.91-1.27,1.88l-1.34,2.35Z"/><path class="a" d="M287.83,11.73l.85-.49q.62-.35,1.37-.72t1.52-.69a4.26,4.26,0,0,1,1.34-.35.61.61,0,0,1,.42,0,.7.7,0,0,1,.32.22q.2.34,0,.52a1.46,1.46,0,0,1-.44.32,3,3,0,0,1-.59.22.76.76,0,0,0-.42.22c-.11.13-.08.26.08.37a2.1,2.1,0,0,0,.62.27l.74.18a1.74,1.74,0,0,1,.47.15,1.48,1.48,0,0,1,.79.79,1,1,0,0,1-.15.85l.9-.47,2.68-1.41a.38.38,0,0,1,.42,0,.42.42,0,0,1,.18.39.4.4,0,0,1-.28.39l-.52.22q-.8.37-1.63.79l-1.63.85q-1,.47-1.86.84a4.73,4.73,0,0,1-1.83.37,1.72,1.72,0,0,1-1.19-.47,1.41,1.41,0,0,1-.52-1.07.59.59,0,0,1,.13-.49.75.75,0,0,1,.4-.23.5.5,0,0,1,.42.08.59.59,0,0,1,.22.44.78.78,0,0,0,.59.79,2.72,2.72,0,0,0,1.22-.05,4,4,0,0,0,.85-.42,2.06,2.06,0,0,0,.55-.49q.44-.47.23-.74a1.41,1.41,0,0,0-.69-.44,9.32,9.32,0,0,0-1-.28,1.81,1.81,0,0,1-.74-.29,1,1,0,0,1-.35-.54,1.24,1.24,0,0,1,0-.54l-1,.42-.89.39a6.35,6.35,0,0,0-.72.49,1.3,1.3,0,0,1-.75.32.35.35,0,0,1-.29-.05.3.3,0,0,1-.13-.2.51.51,0,0,1,0-.25A.36.36,0,0,1,287.83,11.73Z"/><path class="a" d="M301.47,7.57q.6,0,1.21,0t1.21-.08q.94-1.44,2-3a12.07,12.07,0,0,1,2.46-2.63l.55-.34a1.47,1.47,0,0,1,.59-.2.56.56,0,0,1,.5.27.64.64,0,0,1,.07.57,3,3,0,0,1-.74,1.29q-.57.62-1,1.12-.5.67-1.06,1.31T306.2,7.14l2-.47,3.32-1a2.4,2.4,0,0,1,.49-.15.44.44,0,0,1,.45.22.56.56,0,0,1,.1.55.6.6,0,0,1-.37.39,21.2,21.2,0,0,1-3.22.84q-1.68.3-3.28.5l-.47.1q-.4.37-.84.74l-.91.74a4.78,4.78,0,0,0-.4.69l-.34.72a2.7,2.7,0,0,0-.2.5q-.13.4-.25.82t-.18.77q-.07.35,0,.35a2.87,2.87,0,0,0,1.52-.08l1.42-.42,1.54-.54q.77-.27,1.54-.6a2.5,2.5,0,0,1,.52-.1q.32,0,.28.4c0,.2-.16.34-.42.42a6.2,6.2,0,0,0-.62.22l-2.38.87-1.12.47a10.39,10.39,0,0,1-1.44.49,2.78,2.78,0,0,1-1.31.05,1,1,0,0,1-.72-.91,3,3,0,0,1,.29-1.52q.35-.75.82-1.63a25.44,25.44,0,0,1-3.22,1.84.37.37,0,0,1-.33,0,.44.44,0,0,1-.2-.2.36.36,0,0,1,0-.29.47.47,0,0,1,.22-.25,25.35,25.35,0,0,0,2.26-1.17,23.29,23.29,0,0,0,2.13-1.41l.47-.8q-.5,0-1.11.13a1.5,1.5,0,0,1-1-.1.38.38,0,0,1-.18-.47A.37.37,0,0,1,301.47,7.57Zm6.07-3.18a5.52,5.52,0,0,0,.32-.5l.32-.54q-.34.34-.62.67t-.49.54q-.6.67-1.17,1.36a12.33,12.33,0,0,0-1,1.46A19.84,19.84,0,0,0,307.54,4.39Z"/><path class="a" d="M312,10.19a13.44,13.44,0,0,1,1.39-.47l1.39-.4a4.19,4.19,0,0,1,1-.37,1.22,1.22,0,0,1,1,.13.5.5,0,0,1,.2.54.64.64,0,0,1,.47.13,1.06,1.06,0,0,1,.3,1,3.6,3.6,0,0,1-.5,1.17,1.57,1.57,0,0,0,.4.33,2,2,0,0,0,1.17.3,5.19,5.19,0,0,0,1.21-.2,2.23,2.23,0,0,0,.5-.2l.69-.32a2.89,2.89,0,0,1,.65-.2q.3,0,.4.15a.37.37,0,0,1,0,.45,1.24,1.24,0,0,1-.45.3l-.59.22-.4.13a7.64,7.64,0,0,1-1.06.27,6.1,6.1,0,0,1-1.09.1,3.59,3.59,0,0,1-1-.15,2,2,0,0,1-.87-.52l-.74.77a10.55,10.55,0,0,1-.9.74,6,6,0,0,1-1.06.62,3.81,3.81,0,0,1-1.16.32,2.2,2.2,0,0,1-1.14-.17,1.24,1.24,0,0,1-.79-.79,1.71,1.71,0,0,1,.08-1,4.3,4.3,0,0,1,.57-1,7.22,7.22,0,0,1,.7-.84l.64-.64q-.77.27-1.51.6t-1.47.7l-.33.18-.4.22a2.15,2.15,0,0,1-.39.15.42.42,0,0,1-.52-.42.42.42,0,0,1,.23-.33Zm1.14,1.17-.49.5a5.62,5.62,0,0,0-.62.77,1.85,1.85,0,0,0-.32.75q-.05.35.42.42a4.11,4.11,0,0,0,1.66-.07,3.36,3.36,0,0,0,1.42-.77l.5-.5a2.4,2.4,0,0,0,.4-.54,2.84,2.84,0,0,1-.18-.94,1.36,1.36,0,0,1,.25-.87,5,5,0,0,0-1.69.4A5.77,5.77,0,0,0,313.1,11.36Z"/><path class="a" d="M321.55,11.73l1.27-.69q.91-.49,1.86-.92a8.47,8.47,0,0,1,1.76-.6q.8-.17,1,.27a.66.66,0,0,1-.08.65A2.83,2.83,0,0,0,327,11l-.4.94a8.21,8.21,0,0,1,.87-.47l.87-.4q1.07-.57,2.21-1.21a10.85,10.85,0,0,1,2.31-1,1.65,1.65,0,0,1,.77,0,1,1,0,0,1,.52.3.85.85,0,0,1,.18.57,1.38,1.38,0,0,1-.27.75,5.57,5.57,0,0,1-.65.84q-.35.37-.72.8a2,2,0,0,1-.23.27q-.17.17-.35.39t-.34.44a1.08,1.08,0,0,0-.18.39,1.28,1.28,0,0,0,.59,0,5.34,5.34,0,0,0,.7-.18q.35-.12.67-.25l.49-.2,1.37-.6.35-.2.45-.25.45-.22a.9.9,0,0,1,.35-.1.27.27,0,0,1,.3.3.53.53,0,0,1-.27.47c-.2.11-.41.22-.64.32l-.7.32q-.47.27-.91.47l-.9.44-.85.39a6,6,0,0,1-1.17.37,1.94,1.94,0,0,1-1,0q-.44-.15-.44-.82a1.12,1.12,0,0,1,.17-.6,4.14,4.14,0,0,1,.39-.52,6.35,6.35,0,0,1,.47-.49l.45-.44a7.41,7.41,0,0,0,.67-.7,2.72,2.72,0,0,0,.6-1,7,7,0,0,0-1.83.47,18.5,18.5,0,0,0-1.69.77q-1,.47-2,1.06a7.78,7.78,0,0,0-1.81,1.39.65.65,0,0,1-.35.15.64.64,0,0,1-.35-.07.54.54,0,0,1-.25-.25.63.63,0,0,1,0-.44,1,1,0,0,1,.5-.54,6.35,6.35,0,0,0,.33-.62,2,2,0,0,1,.23-.42l.13-.49a3.93,3.93,0,0,0,.1-.52q-.37.1-.74.23l-.57.2-.94.39q-.47.18-.94.42l-.49.27a2.77,2.77,0,0,1-.49.23.53.53,0,0,1-.39.05.64.64,0,0,1-.29-.15.29.29,0,0,1-.08-.25C321.31,11.88,321.39,11.8,321.55,11.73Z"/><path class="a" d="M336.9,11.7q.6-.3,1.26-.67a11.14,11.14,0,0,1,1.32-.64,3.42,3.42,0,0,1,1.24-1.26,5.07,5.07,0,0,1,1.71-.65,4.45,4.45,0,0,1,1.09,0,1.33,1.33,0,0,1,1,.5.53.53,0,0,1,.12.57,1.57,1.57,0,0,1-.4.57,3.94,3.94,0,0,1-.64.49l-.52.32a4.79,4.79,0,0,1-1.32.55,4.27,4.27,0,0,1-1.46.12h-.13a1.88,1.88,0,0,0,.6,1.14,2.92,2.92,0,0,0,1.11.59,4,4,0,0,0,1.32.15,10.06,10.06,0,0,0,1.26-.13,14.79,14.79,0,0,0,1.58-.42,14.49,14.49,0,0,0,1.51-.59l.69-.32a7.09,7.09,0,0,0,.65-.32.64.64,0,0,1,.49.07q.25.13.05.44a.86.86,0,0,1-.47.37l-.54.2-1.68.74a28.55,28.55,0,0,1-3,1,5,5,0,0,1-1.36.08,3.93,3.93,0,0,1-1.27-.3,3.35,3.35,0,0,1-1.06-.72,2.65,2.65,0,0,1-.67-1.21q-.07-.27-.12-.54a1.08,1.08,0,0,1,0-.5,6.44,6.44,0,0,0-.72.39l-.62.39a2.48,2.48,0,0,0-.44.25.45.45,0,0,1-.54,0,.38.38,0,0,1-.18-.37A.31.31,0,0,1,336.9,11.7Zm3.42-.94a3.88,3.88,0,0,0,1.56-.4,4.89,4.89,0,0,0,1.32-.94,1.89,1.89,0,0,0-.92-.1,2.59,2.59,0,0,0-1.53.79A2.09,2.09,0,0,0,340.32,10.76Z"/><path class="a" d="M358.65,11.7q.6-.3,1.26-.67a11.14,11.14,0,0,1,1.32-.64,3.42,3.42,0,0,1,1.24-1.26,5.07,5.07,0,0,1,1.71-.65,4.45,4.45,0,0,1,1.09,0,1.33,1.33,0,0,1,1,.5.53.53,0,0,1,.12.57,1.57,1.57,0,0,1-.4.57,3.94,3.94,0,0,1-.64.49l-.52.32a4.79,4.79,0,0,1-1.32.55,4.27,4.27,0,0,1-1.46.12h-.13a1.88,1.88,0,0,0,.6,1.14,2.92,2.92,0,0,0,1.11.59,4,4,0,0,0,1.32.15,10.06,10.06,0,0,0,1.26-.13,14.79,14.79,0,0,0,1.58-.42,14.49,14.49,0,0,0,1.51-.59l.69-.32a7.09,7.09,0,0,0,.65-.32.64.64,0,0,1,.49.07q.25.13.05.44a.86.86,0,0,1-.47.37l-.54.2-1.68.74a28.55,28.55,0,0,1-3,1,5,5,0,0,1-1.36.08,3.93,3.93,0,0,1-1.27-.3,3.35,3.35,0,0,1-1.06-.72,2.65,2.65,0,0,1-.67-1.21q-.07-.27-.12-.54a1.08,1.08,0,0,1,0-.5,6.44,6.44,0,0,0-.72.39l-.62.39a2.48,2.48,0,0,0-.44.25.45.45,0,0,1-.54,0,.38.38,0,0,1-.18-.37A.31.31,0,0,1,358.65,11.7Zm3.42-.94a3.88,3.88,0,0,0,1.56-.4A4.89,4.89,0,0,0,365,9.42a1.89,1.89,0,0,0-.92-.1,2.59,2.59,0,0,0-1.53.79A2.09,2.09,0,0,0,362.07,10.76Z"/><path class="a" d="M370.42,11.73l1.27-.69q.91-.49,1.86-.92a8.47,8.47,0,0,1,1.76-.6q.8-.17,1,.27a.66.66,0,0,1-.08.65,2.83,2.83,0,0,0-.32.59l-.4.94a8.21,8.21,0,0,1,.87-.47l.87-.4q1.07-.57,2.21-1.21a10.85,10.85,0,0,1,2.31-1,1.65,1.65,0,0,1,.77,0,1,1,0,0,1,.52.3.85.85,0,0,1,.18.57,1.38,1.38,0,0,1-.27.75,5.57,5.57,0,0,1-.65.84q-.35.37-.72.8a2,2,0,0,1-.23.27q-.17.17-.35.39t-.34.44a1.08,1.08,0,0,0-.18.39,1.28,1.28,0,0,0,.59,0,5.34,5.34,0,0,0,.7-.18q.35-.12.67-.25L383,13l1.37-.6.35-.2.45-.25.45-.22a.9.9,0,0,1,.35-.1.27.27,0,0,1,.3.3.53.53,0,0,1-.27.47c-.2.11-.41.22-.64.32l-.7.32q-.47.27-.91.47l-.9.44-.85.39a6,6,0,0,1-1.17.37,1.94,1.94,0,0,1-1,0q-.44-.15-.44-.82a1.12,1.12,0,0,1,.17-.6,4.14,4.14,0,0,1,.39-.52,6.35,6.35,0,0,1,.47-.49l.45-.44a7.41,7.41,0,0,0,.67-.7,2.72,2.72,0,0,0,.6-1,7,7,0,0,0-1.83.47,18.5,18.5,0,0,0-1.69.77q-1,.47-2,1.06a7.78,7.78,0,0,0-1.81,1.39.65.65,0,0,1-.35.15.64.64,0,0,1-.35-.07.54.54,0,0,1-.25-.25.63.63,0,0,1,0-.44,1,1,0,0,1,.5-.54,6.35,6.35,0,0,0,.33-.62,2,2,0,0,1,.23-.42l.13-.49a3.93,3.93,0,0,0,.1-.52q-.37.1-.74.23l-.57.2-.94.39q-.47.18-.94.42l-.49.27a2.77,2.77,0,0,1-.49.23.53.53,0,0,1-.39.05.64.64,0,0,1-.29-.15.29.29,0,0,1-.08-.25C370.18,11.88,370.26,11.8,370.42,11.73Z"/><path class="a" d="M385.7,11.7l1.39-.74q.69-.37,1.49-.84A1.62,1.62,0,0,1,389,8.92a1.33,1.33,0,0,1,1.16-.54.68.68,0,0,1,.6.47.81.81,0,0,1-.13.77,2.26,2.26,0,0,1-.7.67,1.13,1.13,0,0,0,.57.13,3.07,3.07,0,0,0,1.48-.25,9.79,9.79,0,0,0,1.37-.69q.6-.2.77.13a.8.8,0,0,1-.13.8q-.17.27-.39.69a6.39,6.39,0,0,0-.37.85,2.92,2.92,0,0,0-.17.84.75.75,0,0,0,.25.64q.17.2.89,0t1.93-.67q.4-.17.82-.39l.85-.42a1.75,1.75,0,0,0,.3-.15,1.58,1.58,0,0,1,.38-.17.57.57,0,0,1,.34,0c.1,0,.15.15.15.35a.4.4,0,0,1-.15.3,1.83,1.83,0,0,1-.34.23,2.4,2.4,0,0,1-.38.17l-.3.1-1.41.64-.92.5a7.71,7.71,0,0,1-1.12.5,3.32,3.32,0,0,1-1.11.2,1,1,0,0,1-.84-.44,1.1,1.1,0,0,1-.2-.52,1.94,1.94,0,0,1,0-.57,5.14,5.14,0,0,1,.13-.57q.08-.28.15-.55l.27-1.11-.69.17a6.71,6.71,0,0,1-1.12.18,5.65,5.65,0,0,1-1.16,0,1.13,1.13,0,0,1-.82-.44l-.94.5-.75.44-.62.37a2,2,0,0,0-.47.25.39.39,0,0,1-.47.05.42.42,0,0,1-.2-.37A.35.35,0,0,1,385.7,11.7Z"/><path class="a" d="M401.72,10.09l.62-.27a5.52,5.52,0,0,1,1-.3,1.8,1.8,0,0,1,.8,0q.34.08.23.62a1.66,1.66,0,0,1-.28.6,2.23,2.23,0,0,0-.32.6,7.53,7.53,0,0,0-.39,1.07,1.13,1.13,0,0,0,.12,1,3.16,3.16,0,0,0,1.26-.13q.69-.2,1.26-.4a6.36,6.36,0,0,0,.64-.34q.47-.27,1-.52a5.52,5.52,0,0,1,1-.37q.44-.12.54.08t-.17.5a3.22,3.22,0,0,1-.75.49q-.45.22-.92.4l-.6.25-1.49.72a6,6,0,0,1-1.56.49.91.91,0,0,1-1-.3,1.8,1.8,0,0,1-.27-1,5.43,5.43,0,0,1,.18-1.34q.18-.72.39-1.32-.77.3-1.51.55a13.54,13.54,0,0,0-1.44.59q-.6.27-1.21.6a.51.51,0,0,1-.59-.18c-.14-.19-.08-.35.18-.49Zm3.92-6.77a2,2,0,0,1,.52-.75,3.12,3.12,0,0,1,.79-.52,5,5,0,0,1,.92-.32q.49-.12.92-.18a12.11,12.11,0,0,1,2.38.1,1.76,1.76,0,0,1,.45.07q.25.07.22.37a.5.5,0,0,1-.17.28.34.34,0,0,1-.3.08,8.06,8.06,0,0,0-2-.15,3.61,3.61,0,0,0-1.89.62,1.08,1.08,0,0,0-.47.54,1.22,1.22,0,0,1-.4.54.53.53,0,0,1-.7,0A.55.55,0,0,1,405.64,3.32Z"/><path class="a" d="M408.63,11.7a13.53,13.53,0,0,0,1.66-.84q.79-.47,1.63-.87l.57-.27a2.47,2.47,0,0,1,.57-.2,8.07,8.07,0,0,1,1.34-.4,4.31,4.31,0,0,1,1.37-.1.76.76,0,0,1,.39.25.7.7,0,0,1,.17.39.55.55,0,0,1-.1.37.55.55,0,0,1-.42.2.88.88,0,0,1-.45,0l-.52-.08a4.23,4.23,0,0,0-.92,0,2.71,2.71,0,0,0-.89.3,1.91,1.91,0,0,0-1,.92,1.18,1.18,0,0,0,.2,1.29,2.31,2.31,0,0,0,1.24.79,4.49,4.49,0,0,0,1.56.1,9,9,0,0,0,1.63-.32l1.41-.44a8,8,0,0,0,1.41-.57l1.11-.57a.32.32,0,0,1,.45.05.35.35,0,0,1,0,.49.71.71,0,0,1-.45.4,5.62,5.62,0,0,1-.62.2q-1.37.67-2.88,1.24a8.64,8.64,0,0,1-3.08.57,3.12,3.12,0,0,1-2.41-1,2.42,2.42,0,0,1-.59-1.12,2.14,2.14,0,0,1,.18-1.39v0q-.37.2-.72.44a5.12,5.12,0,0,1-.72.4l-.49.33a.66.66,0,0,1-.55.13.33.33,0,0,1-.35-.32A.34.34,0,0,1,408.63,11.7Z"/><path class="a" d="M420.56,11.7q2.11-1,4.09-2.18a18,18,0,0,0,3.42-2.58l1.21-2.18q.57-1,1.24-2a5.86,5.86,0,0,1,1.61-1.66,4.14,4.14,0,0,1,.67-.28,2.51,2.51,0,0,1,.82-.15.82.82,0,0,1,.6.22q.22.22,0,.82a3.29,3.29,0,0,1-.49.89,9.58,9.58,0,0,1-.7.82c-.26.27-.52.52-.79.75a8.26,8.26,0,0,0-.7.69q-.7.67-1.44,1.34T428.6,7.47l-.39.72q-.18.35-.35.72l-.6,1.14q-.3.57-.67,1.14,1-.6,2.13-1.12t2.16-1a4,4,0,0,1,.85-.33,1.74,1.74,0,0,1,1,0,.91.91,0,0,1,.64.64,1.18,1.18,0,0,1-.13.94,4.69,4.69,0,0,1-.52.8l-.65.82a5.3,5.3,0,0,0-.57.87,1.92,1.92,0,0,0-.23.89,6.37,6.37,0,0,0,1.83-.52q1-.42,1.73-.82.27-.13.62-.35a3.65,3.65,0,0,1,.62-.32.33.33,0,0,1,.32,0,.56.56,0,0,1,.23.18.41.41,0,0,1,.07.29.34.34,0,0,1-.22.27,16.06,16.06,0,0,1-1.51.79,16.28,16.28,0,0,0-1.51.79l-.7.4a4.09,4.09,0,0,1-.82.37,2.17,2.17,0,0,1-.84.1,1,1,0,0,1-.72-.4.94.94,0,0,1-.22-.64,1.73,1.73,0,0,1,.17-.65,3.92,3.92,0,0,1,.37-.62L431,12q.37-.47.72-1a2.55,2.55,0,0,0,.42-1.11,1.8,1.8,0,0,0-.59,0,5.43,5.43,0,0,0-.65.18l-.65.25a5.09,5.09,0,0,1-.55.2q-.74.34-1.42.72t-1.36.82q-1.07.77-1.51,1.16l-.64.55a.92.92,0,0,1-.38.23.54.54,0,0,1-.49-.13.52.52,0,0,1-.23-.45.85.85,0,0,1,.2-.42,19.51,19.51,0,0,0,1.79-2.15,23.78,23.78,0,0,0,1.49-2.35q-.91.7-1.83,1.31T423.47,11q-.57.37-1.12.67l-1.12.6-.35.15a.32.32,0,0,1-.35-.05.45.45,0,0,1-.17-.37A.35.35,0,0,1,420.56,11.7Zm10.63-7.61q.44-.44.89-.94A5,5,0,0,0,432.83,2a4.5,4.5,0,0,0-1.37,1,12.59,12.59,0,0,0-1.07,1.32l-.7,1.17.75-.74Z"/><path class="a" d="M436,11.7q.6-.3,1.26-.67a11.09,11.09,0,0,1,1.32-.64,3.44,3.44,0,0,1,1.24-1.26,5.08,5.08,0,0,1,1.71-.65,4.44,4.44,0,0,1,1.09,0,1.33,1.33,0,0,1,1,.5.53.53,0,0,1,.12.57,1.58,1.58,0,0,1-.4.57,4,4,0,0,1-.64.49l-.52.32a4.79,4.79,0,0,1-1.32.55,4.27,4.27,0,0,1-1.46.12h-.13a1.89,1.89,0,0,0,.6,1.14,2.93,2.93,0,0,0,1.11.59,4,4,0,0,0,1.32.15,10.09,10.09,0,0,0,1.26-.13,14.82,14.82,0,0,0,1.58-.42,14.44,14.44,0,0,0,1.51-.59l.69-.32a7.15,7.15,0,0,0,.65-.32.64.64,0,0,1,.49.07q.25.13,0,.44a.85.85,0,0,1-.47.37l-.54.2-1.68.74a28.56,28.56,0,0,1-3.05,1,5,5,0,0,1-1.36.08,3.93,3.93,0,0,1-1.27-.3,3.34,3.34,0,0,1-1.06-.72,2.64,2.64,0,0,1-.67-1.21c0-.18-.08-.36-.12-.54a1.07,1.07,0,0,1,0-.5,6.32,6.32,0,0,0-.72.39l-.62.39a2.47,2.47,0,0,0-.44.25.45.45,0,0,1-.54,0,.38.38,0,0,1-.18-.37A.31.31,0,0,1,436,11.7Zm3.42-.94a3.87,3.87,0,0,0,1.56-.4,4.89,4.89,0,0,0,1.32-.94,1.89,1.89,0,0,0-.92-.1,2.59,2.59,0,0,0-1.52.79A2.1,2.1,0,0,0,439.43,10.76Z"/><path class="a" d="M447.77,11.73l.86-.49q.62-.35,1.37-.72t1.52-.69a4.27,4.27,0,0,1,1.34-.35.61.61,0,0,1,.42,0,.7.7,0,0,1,.32.22c.13.22.15.4,0,.52a1.48,1.48,0,0,1-.44.32,3.06,3.06,0,0,1-.59.22.77.77,0,0,0-.42.22q-.17.2.08.37a2.09,2.09,0,0,0,.62.27l.74.18a1.73,1.73,0,0,1,.47.15,1.48,1.48,0,0,1,.79.79,1,1,0,0,1-.15.85l.91-.47,2.68-1.41a.38.38,0,0,1,.42,0,.42.42,0,0,1,.18.39.4.4,0,0,1-.29.39l-.52.22q-.8.37-1.63.79l-1.62.85q-1,.47-1.86.84a4.73,4.73,0,0,1-1.83.37,1.72,1.72,0,0,1-1.19-.47,1.41,1.41,0,0,1-.52-1.07.59.59,0,0,1,.13-.49.75.75,0,0,1,.4-.23.5.5,0,0,1,.42.08.59.59,0,0,1,.22.44.78.78,0,0,0,.59.79,2.72,2.72,0,0,0,1.22-.05,4,4,0,0,0,.86-.42,2.07,2.07,0,0,0,.55-.49c.29-.31.37-.56.23-.74a1.41,1.41,0,0,0-.69-.44,9.29,9.29,0,0,0-1-.28,1.81,1.81,0,0,1-.74-.29,1,1,0,0,1-.35-.54,1.24,1.24,0,0,1,0-.54l-1,.42-.89.39a6.35,6.35,0,0,0-.72.49,1.3,1.3,0,0,1-.75.32.35.35,0,0,1-.28-.05.3.3,0,0,1-.13-.2.51.51,0,0,1,0-.25A.36.36,0,0,1,447.77,11.73Z"/><path class="a" d="M471.27,7.57q.6,0,1.21,0t1.21-.08q.94-1.44,2-3a12.11,12.11,0,0,1,2.46-2.63l.55-.34a1.48,1.48,0,0,1,.59-.2.56.56,0,0,1,.5.27.64.64,0,0,1,.07.57,3,3,0,0,1-.74,1.29q-.57.62-1,1.12-.5.67-1.06,1.31T476,7.14l2-.47,3.32-1a2.4,2.4,0,0,1,.49-.15.44.44,0,0,1,.45.22.56.56,0,0,1,.1.55.6.6,0,0,1-.37.39,21.17,21.17,0,0,1-3.22.84q-1.68.3-3.28.5l-.47.1c-.27.25-.55.49-.84.74l-.9.74a4.7,4.7,0,0,0-.4.69l-.33.72a2.6,2.6,0,0,0-.2.5q-.13.4-.25.82t-.18.77c0,.23,0,.35,0,.35a2.87,2.87,0,0,0,1.52-.08l1.42-.42,1.54-.54q.77-.27,1.54-.6a2.5,2.5,0,0,1,.52-.1q.32,0,.28.4c0,.2-.16.34-.42.42a6.12,6.12,0,0,0-.62.22l-2.38.87-1.12.47a10.37,10.37,0,0,1-1.44.49,2.78,2.78,0,0,1-1.31.05,1,1,0,0,1-.72-.91,2.94,2.94,0,0,1,.28-1.52q.35-.75.82-1.63a25.47,25.47,0,0,1-3.22,1.84.37.37,0,0,1-.33,0,.44.44,0,0,1-.2-.2.36.36,0,0,1,0-.29.47.47,0,0,1,.22-.25,25.36,25.36,0,0,0,2.26-1.17,23.29,23.29,0,0,0,2.13-1.41l.47-.8q-.5,0-1.11.13a1.5,1.5,0,0,1-1-.1.38.38,0,0,1-.18-.47A.37.37,0,0,1,471.27,7.57Zm6.07-3.18a5.52,5.52,0,0,0,.32-.5c.1-.18.21-.36.32-.54q-.34.34-.62.67c-.19.22-.35.4-.49.54q-.6.67-1.17,1.36a12.28,12.28,0,0,0-1,1.46A19.84,19.84,0,0,0,477.34,4.39Z"/><path class="a" d="M478.34,11.7q2.11-1,4.09-2.18a18,18,0,0,0,3.42-2.58l1.21-2.18q.57-1,1.24-2a5.86,5.86,0,0,1,1.61-1.66,4.14,4.14,0,0,1,.67-.28,2.51,2.51,0,0,1,.82-.15.82.82,0,0,1,.6.22q.22.22,0,.82a3.29,3.29,0,0,1-.49.89,9.58,9.58,0,0,1-.7.82c-.26.27-.52.52-.79.75a8.26,8.26,0,0,0-.7.69q-.7.67-1.44,1.34t-1.51,1.27l-.39.72q-.18.35-.35.72l-.6,1.14q-.3.57-.67,1.14,1-.6,2.13-1.12t2.16-1a4,4,0,0,1,.85-.33,1.74,1.74,0,0,1,1,0,.91.91,0,0,1,.64.64,1.18,1.18,0,0,1-.13.94,4.69,4.69,0,0,1-.52.8l-.65.82a5.3,5.3,0,0,0-.57.87,1.92,1.92,0,0,0-.23.89,6.37,6.37,0,0,0,1.83-.52q1-.42,1.73-.82.27-.13.62-.35a3.65,3.65,0,0,1,.62-.32.33.33,0,0,1,.32,0,.56.56,0,0,1,.23.18.41.41,0,0,1,.07.29.34.34,0,0,1-.22.27,16.06,16.06,0,0,1-1.51.79,16.28,16.28,0,0,0-1.51.79l-.7.4a4.09,4.09,0,0,1-.82.37,2.17,2.17,0,0,1-.84.1,1,1,0,0,1-.72-.4.94.94,0,0,1-.22-.64,1.73,1.73,0,0,1,.17-.65,3.92,3.92,0,0,1,.37-.62l.39-.54q.37-.47.72-1a2.55,2.55,0,0,0,.42-1.11,1.8,1.8,0,0,0-.59,0,5.43,5.43,0,0,0-.65.18l-.65.25a5.09,5.09,0,0,1-.55.2q-.74.34-1.42.72t-1.36.82q-1.07.77-1.51,1.16l-.64.55a.92.92,0,0,1-.38.23.54.54,0,0,1-.49-.13.52.52,0,0,1-.23-.45.85.85,0,0,1,.2-.42,19.51,19.51,0,0,0,1.79-2.15,23.78,23.78,0,0,0,1.49-2.35q-.91.7-1.83,1.31T481.26,11q-.57.37-1.12.67l-1.12.6-.35.15a.32.32,0,0,1-.35-.05.45.45,0,0,1-.17-.37A.35.35,0,0,1,478.34,11.7ZM489,4.09q.44-.44.89-.94A5,5,0,0,0,490.61,2a4.5,4.5,0,0,0-1.37,1,12.59,12.59,0,0,0-1.07,1.32l-.7,1.17.75-.74Z"/><path class="a" d="M493.79,11.7q.6-.3,1.26-.67a11.09,11.09,0,0,1,1.32-.64,3.44,3.44,0,0,1,1.24-1.26,5.08,5.08,0,0,1,1.71-.65,4.44,4.44,0,0,1,1.09,0,1.33,1.33,0,0,1,1,.5.53.53,0,0,1,.12.57,1.58,1.58,0,0,1-.4.57,4,4,0,0,1-.64.49l-.52.32a4.79,4.79,0,0,1-1.32.55,4.27,4.27,0,0,1-1.46.12H497a1.89,1.89,0,0,0,.6,1.14,2.93,2.93,0,0,0,1.11.59,4,4,0,0,0,1.32.15,10.09,10.09,0,0,0,1.26-.13,14.82,14.82,0,0,0,1.58-.42,14.44,14.44,0,0,0,1.51-.59l.69-.32a7.15,7.15,0,0,0,.65-.32.64.64,0,0,1,.49.07q.25.13,0,.44a.85.85,0,0,1-.47.37l-.54.2-1.68.74a28.56,28.56,0,0,1-3.05,1,5,5,0,0,1-1.36.08,3.93,3.93,0,0,1-1.27-.3,3.34,3.34,0,0,1-1.06-.72,2.64,2.64,0,0,1-.67-1.21c0-.18-.08-.36-.12-.54a1.07,1.07,0,0,1,0-.5,6.32,6.32,0,0,0-.72.39l-.62.39a2.47,2.47,0,0,0-.44.25.45.45,0,0,1-.54,0,.38.38,0,0,1-.18-.37A.31.31,0,0,1,493.79,11.7Zm3.42-.94a3.87,3.87,0,0,0,1.56-.4,4.89,4.89,0,0,0,1.32-.94,1.89,1.89,0,0,0-.92-.1,2.59,2.59,0,0,0-1.52.79A2.1,2.1,0,0,0,497.21,10.76Z"/><path class="a" d="M515.48,11.7q1.27-.54,2.51-1.11t2.48-1.11l.59-.28a.58.58,0,0,1,.59,0,.59.59,0,0,1,.3.33.46.46,0,0,1-.07.34,2.19,2.19,0,0,1-.25.33,2,2,0,0,1-.29.27,6,6,0,0,0-.65.77q-.29.4-.55.84a2.64,2.64,0,0,0-.23.44l-.2.47q-.24.67.12.72a1.85,1.85,0,0,0,.9-.17,6.61,6.61,0,0,0,1.09-.55l.67-.44.3-.23a2.39,2.39,0,0,1,.13-1.11,2.75,2.75,0,0,1,.67-1,4.44,4.44,0,0,1,.67-.54,1,1,0,0,1,.84-.13c.34.09.49.28.47.57a2,2,0,0,1-.23.8,4.89,4.89,0,0,1-.64.87,8.89,8.89,0,0,1-.8.77,2.42,2.42,0,0,0,.85.18,4.27,4.27,0,0,0,.92-.07q.47-.08.92-.2t.82-.25a3.23,3.23,0,0,0,.69-.2,6.26,6.26,0,0,0,.62-.3.36.36,0,0,1,.47.08.33.33,0,0,1,0,.45.86.86,0,0,1-.39.35,3.62,3.62,0,0,1-.6.25c-.21.07-.42.12-.64.17l-.52.1q-.67.17-1.36.28a5,5,0,0,1-1.36.05,1.65,1.65,0,0,1-1.07-.4,9.35,9.35,0,0,1-1,.72q-.49.32-1,.59a3.79,3.79,0,0,1-.91.4,2.47,2.47,0,0,1-1,.12,1.07,1.07,0,0,1-.74-.37q-.27-.32,0-1.09a10.63,10.63,0,0,1,1.21-2.71L519,11l-.92.33a10.54,10.54,0,0,0-1,.44q-.47.23-.94.5l-.44.13q-.23.07-.4-.2A.39.39,0,0,1,515.48,11.7Z"/><path class="a" d="M532.07,10.09l.62-.27a5.52,5.52,0,0,1,1-.3,1.8,1.8,0,0,1,.8,0q.34.08.23.62a1.66,1.66,0,0,1-.28.6,2.23,2.23,0,0,0-.32.6,7.53,7.53,0,0,0-.39,1.07,1.13,1.13,0,0,0,.12,1,3.16,3.16,0,0,0,1.26-.13q.69-.2,1.26-.4a6.36,6.36,0,0,0,.64-.34q.47-.27,1-.52a5.52,5.52,0,0,1,1-.37q.44-.12.54.08t-.17.5a3.22,3.22,0,0,1-.75.49q-.45.22-.92.4l-.6.25-1.49.72a6,6,0,0,1-1.56.49.91.91,0,0,1-1-.3,1.8,1.8,0,0,1-.27-1,5.43,5.43,0,0,1,.18-1.34q.18-.72.39-1.32-.77.3-1.51.55a13.54,13.54,0,0,0-1.44.59q-.6.27-1.21.6a.51.51,0,0,1-.59-.18c-.14-.19-.08-.35.18-.49ZM536,3.32a2,2,0,0,1,.52-.75A3.12,3.12,0,0,1,537.3,2a5,5,0,0,1,.92-.32q.49-.12.92-.18a12.11,12.11,0,0,1,2.38.1,1.76,1.76,0,0,1,.45.07q.25.07.22.37a.5.5,0,0,1-.17.28.34.34,0,0,1-.3.08,8.06,8.06,0,0,0-2-.15,3.61,3.61,0,0,0-1.89.62,1.08,1.08,0,0,0-.47.54,1.22,1.22,0,0,1-.4.54.53.53,0,0,1-.7,0A.55.55,0,0,1,536,3.32Z"/><path class="a" d="M538.84,11.73l.86-.49q.62-.35,1.37-.72t1.52-.69a4.27,4.27,0,0,1,1.34-.35.61.61,0,0,1,.42,0,.7.7,0,0,1,.32.22c.13.22.15.4,0,.52a1.48,1.48,0,0,1-.44.32,3.06,3.06,0,0,1-.59.22.77.77,0,0,0-.42.22q-.17.2.08.37a2.09,2.09,0,0,0,.62.27l.74.18a1.73,1.73,0,0,1,.47.15,1.48,1.48,0,0,1,.79.79,1,1,0,0,1-.15.85l.91-.47,2.68-1.41a.38.38,0,0,1,.42,0,.42.42,0,0,1,.18.39.4.4,0,0,1-.29.39l-.52.22q-.8.37-1.63.79l-1.62.85q-1,.47-1.86.84a4.73,4.73,0,0,1-1.83.37,1.72,1.72,0,0,1-1.19-.47,1.41,1.41,0,0,1-.52-1.07.59.59,0,0,1,.13-.49.75.75,0,0,1,.4-.23.5.5,0,0,1,.42.08.59.59,0,0,1,.22.44.78.78,0,0,0,.59.79,2.72,2.72,0,0,0,1.22-.05,4,4,0,0,0,.86-.42,2.07,2.07,0,0,0,.55-.49c.29-.31.37-.56.23-.74a1.41,1.41,0,0,0-.69-.44,9.29,9.29,0,0,0-1-.28,1.81,1.81,0,0,1-.74-.29,1,1,0,0,1-.35-.54,1.24,1.24,0,0,1,0-.54l-1,.42-.89.39a6.35,6.35,0,0,0-.72.49,1.3,1.3,0,0,1-.75.32.35.35,0,0,1-.28-.05.3.3,0,0,1-.13-.2.51.51,0,0,1,0-.25A.36.36,0,0,1,538.84,11.73Z"/><path class="a" d="M552.85,10.09l.62-.27a5.52,5.52,0,0,1,1-.3,1.8,1.8,0,0,1,.8,0q.34.08.23.62a1.66,1.66,0,0,1-.28.6,2.23,2.23,0,0,0-.32.6,7.53,7.53,0,0,0-.39,1.07,1.13,1.13,0,0,0,.12,1,3.16,3.16,0,0,0,1.26-.13q.69-.2,1.26-.4a6.36,6.36,0,0,0,.64-.34q.47-.27,1-.52a5.52,5.52,0,0,1,1-.37q.44-.12.54.08t-.17.5a3.22,3.22,0,0,1-.75.49q-.45.22-.92.4l-.6.25-1.49.72a6,6,0,0,1-1.56.49.91.91,0,0,1-1-.3,1.8,1.8,0,0,1-.27-1,5.43,5.43,0,0,1,.18-1.34q.18-.72.39-1.32-.77.3-1.51.55a13.54,13.54,0,0,0-1.44.59q-.6.27-1.21.6a.51.51,0,0,1-.59-.18c-.14-.19-.08-.35.18-.49Zm3.92-6.77a2,2,0,0,1,.52-.75,3.12,3.12,0,0,1,.79-.52,5,5,0,0,1,.92-.32q.49-.12.92-.18a12.11,12.11,0,0,1,2.38.1,1.76,1.76,0,0,1,.45.07q.25.07.22.37a.5.5,0,0,1-.17.28.34.34,0,0,1-.3.08,8.06,8.06,0,0,0-2-.15,3.61,3.61,0,0,0-1.89.62,1.08,1.08,0,0,0-.47.54,1.22,1.22,0,0,1-.4.54.53.53,0,0,1-.7,0A.55.55,0,0,1,556.77,3.32Z"/><path class="a" d="M562.67,7.57q.6,0,1.21,0t1.21-.08q.94-1.44,2-3a12.11,12.11,0,0,1,2.46-2.63l.55-.34a1.48,1.48,0,0,1,.59-.2.56.56,0,0,1,.5.27.64.64,0,0,1,.07.57,3,3,0,0,1-.74,1.29q-.57.62-1,1.12-.5.67-1.06,1.31t-1.12,1.24l2-.47,3.32-1a2.4,2.4,0,0,1,.49-.15.44.44,0,0,1,.45.22.56.56,0,0,1,.1.55.6.6,0,0,1-.37.39,21.17,21.17,0,0,1-3.22.84q-1.68.3-3.28.5l-.47.1c-.27.25-.55.49-.84.74l-.9.74a4.7,4.7,0,0,0-.4.69l-.33.72a2.6,2.6,0,0,0-.2.5q-.13.4-.25.82t-.18.77c0,.23,0,.35,0,.35a2.87,2.87,0,0,0,1.52-.08l1.42-.42,1.54-.54q.77-.27,1.54-.6a2.5,2.5,0,0,1,.52-.1q.32,0,.28.4c0,.2-.16.34-.42.42a6.12,6.12,0,0,0-.62.22l-2.38.87-1.12.47a10.37,10.37,0,0,1-1.44.49,2.78,2.78,0,0,1-1.31.05,1,1,0,0,1-.72-.91,2.94,2.94,0,0,1,.28-1.52q.35-.75.82-1.63A25.47,25.47,0,0,1,560,12.4a.37.37,0,0,1-.33,0,.44.44,0,0,1-.2-.2.36.36,0,0,1,0-.29.47.47,0,0,1,.22-.25,25.36,25.36,0,0,0,2.26-1.17,23.29,23.29,0,0,0,2.13-1.41l.47-.8q-.5,0-1.11.13a1.5,1.5,0,0,1-1-.1.38.38,0,0,1-.18-.47A.37.37,0,0,1,562.67,7.57Zm6.07-3.18a5.52,5.52,0,0,0,.32-.5c.1-.18.21-.36.32-.54q-.34.34-.62.67c-.19.22-.35.4-.49.54q-.6.67-1.17,1.36a12.28,12.28,0,0,0-1,1.46A19.84,19.84,0,0,0,568.74,4.39Z"/><path class="a" d="M569.61,11.73l.86-.49q.62-.35,1.37-.72t1.52-.69a4.27,4.27,0,0,1,1.34-.35.61.61,0,0,1,.42,0,.7.7,0,0,1,.32.22c.13.22.15.4,0,.52a1.48,1.48,0,0,1-.44.32,3.06,3.06,0,0,1-.59.22A.77.77,0,0,0,574,11q-.17.2.08.37a2.09,2.09,0,0,0,.62.27l.74.18a1.73,1.73,0,0,1,.47.15,1.48,1.48,0,0,1,.79.79,1,1,0,0,1-.15.85l.91-.47,2.68-1.41a.38.38,0,0,1,.42,0,.42.42,0,0,1,.18.39.4.4,0,0,1-.29.39l-.52.22q-.8.37-1.63.79l-1.62.85q-1,.47-1.86.84a4.73,4.73,0,0,1-1.83.37,1.72,1.72,0,0,1-1.19-.47,1.41,1.41,0,0,1-.52-1.07.59.59,0,0,1,.13-.49.75.75,0,0,1,.4-.23.5.5,0,0,1,.42.08.59.59,0,0,1,.22.44.78.78,0,0,0,.59.79,2.72,2.72,0,0,0,1.22-.05,4,4,0,0,0,.86-.42,2.07,2.07,0,0,0,.55-.49c.29-.31.37-.56.23-.74a1.41,1.41,0,0,0-.69-.44,9.29,9.29,0,0,0-1-.28,1.81,1.81,0,0,1-.74-.29,1,1,0,0,1-.35-.54,1.24,1.24,0,0,1,0-.54l-1,.42-.89.39a6.35,6.35,0,0,0-.72.49,1.3,1.3,0,0,1-.75.32.35.35,0,0,1-.28-.05.3.3,0,0,1-.13-.2.51.51,0,0,1,0-.25A.36.36,0,0,1,569.61,11.73Z"/><path class="a" d="M593.1,7.57q.6,0,1.21,0t1.21-.08q.94-1.44,2-3A12.11,12.11,0,0,1,600,1.88l.55-.34a1.48,1.48,0,0,1,.59-.2.56.56,0,0,1,.5.27.64.64,0,0,1,.07.57A3,3,0,0,1,601,3.47q-.57.62-1,1.12-.5.67-1.06,1.31t-1.12,1.24l2-.47,3.32-1a2.4,2.4,0,0,1,.49-.15.44.44,0,0,1,.45.22.56.56,0,0,1,.1.55.6.6,0,0,1-.37.39,21.17,21.17,0,0,1-3.22.84q-1.68.3-3.28.5l-.47.1c-.27.25-.55.49-.84.74l-.9.74a4.7,4.7,0,0,0-.4.69l-.33.72a2.6,2.6,0,0,0-.2.5q-.13.4-.25.82t-.18.77c0,.23,0,.35,0,.35a2.87,2.87,0,0,0,1.52-.08l1.42-.42,1.54-.54q.77-.27,1.54-.6a2.5,2.5,0,0,1,.52-.1q.32,0,.28.4c0,.2-.16.34-.42.42a6.12,6.12,0,0,0-.62.22l-2.38.87-1.12.47a10.37,10.37,0,0,1-1.44.49,2.78,2.78,0,0,1-1.31.05,1,1,0,0,1-.72-.91,2.94,2.94,0,0,1,.28-1.52q.35-.75.82-1.63a25.47,25.47,0,0,1-3.22,1.84.37.37,0,0,1-.33,0,.44.44,0,0,1-.2-.2.36.36,0,0,1,0-.29.47.47,0,0,1,.22-.25,25.36,25.36,0,0,0,2.26-1.17,23.29,23.29,0,0,0,2.13-1.41l.47-.8q-.5,0-1.11.13a1.5,1.5,0,0,1-1-.1.38.38,0,0,1-.18-.47A.37.37,0,0,1,593.1,7.57Zm6.07-3.18a5.52,5.52,0,0,0,.32-.5c.1-.18.21-.36.32-.54q-.34.34-.62.67c-.19.22-.35.4-.49.54q-.6.67-1.17,1.36a12.28,12.28,0,0,0-1,1.46A19.84,19.84,0,0,0,599.17,4.39Z"/><path class="a" d="M603.59,10.19A13.53,13.53,0,0,1,605,9.72l1.39-.4a4.17,4.17,0,0,1,1-.37,1.22,1.22,0,0,1,1,.13.5.5,0,0,1,.2.54.64.64,0,0,1,.47.13,1.06,1.06,0,0,1,.3,1,3.57,3.57,0,0,1-.5,1.17,1.59,1.59,0,0,0,.4.33,2,2,0,0,0,1.17.3,5.19,5.19,0,0,0,1.21-.2,2.24,2.24,0,0,0,.5-.2l.69-.32a2.88,2.88,0,0,1,.65-.2q.3,0,.4.15a.37.37,0,0,1,0,.45,1.23,1.23,0,0,1-.45.3l-.59.22-.4.13a7.67,7.67,0,0,1-1.06.27,6.09,6.09,0,0,1-1.09.1,3.59,3.59,0,0,1-1-.15,2,2,0,0,1-.87-.52l-.74.77a10.64,10.64,0,0,1-.91.74,6,6,0,0,1-1.06.62,3.82,3.82,0,0,1-1.16.32,2.19,2.19,0,0,1-1.14-.17,1.24,1.24,0,0,1-.79-.79,1.72,1.72,0,0,1,.08-1,4.3,4.3,0,0,1,.57-1,7.27,7.27,0,0,1,.7-.84l.64-.64q-.77.27-1.51.6t-1.47.7l-.34.18-.4.22a2.14,2.14,0,0,1-.38.15.35.35,0,0,1-.32-.05.35.35,0,0,1-.2-.37.42.42,0,0,1,.23-.33Zm1.14,1.17-.49.5a5.69,5.69,0,0,0-.62.77,1.84,1.84,0,0,0-.32.75q-.05.35.42.42a4.11,4.11,0,0,0,1.66-.07,3.36,3.36,0,0,0,1.42-.77l.5-.5a2.41,2.41,0,0,0,.4-.54,2.86,2.86,0,0,1-.18-.94,1.36,1.36,0,0,1,.25-.87,5,5,0,0,0-1.69.4A5.79,5.79,0,0,0,604.73,11.36Z"/><path class="a" d="M626.08,7.57q.6,0,1.21,0t1.21-.08q.94-1.44,2-3A12.11,12.11,0,0,1,633,1.88l.55-.34a1.48,1.48,0,0,1,.59-.2.56.56,0,0,1,.5.27.64.64,0,0,1,.07.57A3,3,0,0,1,634,3.47q-.57.62-1,1.12-.5.67-1.06,1.31t-1.12,1.24l2-.47,3.32-1a2.4,2.4,0,0,1,.49-.15.44.44,0,0,1,.45.22.56.56,0,0,1,.1.55.6.6,0,0,1-.37.39,21.17,21.17,0,0,1-3.22.84q-1.68.3-3.28.5l-.47.1c-.27.25-.55.49-.84.74l-.9.74a4.7,4.7,0,0,0-.4.69l-.33.72a2.6,2.6,0,0,0-.2.5q-.13.4-.25.82t-.18.77c0,.23,0,.35,0,.35a2.87,2.87,0,0,0,1.52-.08l1.42-.42,1.54-.54q.77-.27,1.54-.6a2.5,2.5,0,0,1,.52-.1q.32,0,.28.4c0,.2-.16.34-.42.42a6.12,6.12,0,0,0-.62.22l-2.38.87-1.12.47a10.37,10.37,0,0,1-1.44.49,2.78,2.78,0,0,1-1.31.05,1,1,0,0,1-.72-.91,2.94,2.94,0,0,1,.28-1.52q.35-.75.82-1.63a25.47,25.47,0,0,1-3.22,1.84.37.37,0,0,1-.33,0,.44.44,0,0,1-.2-.2.36.36,0,0,1,0-.29.47.47,0,0,1,.22-.25,25.36,25.36,0,0,0,2.26-1.17,23.29,23.29,0,0,0,2.13-1.41l.47-.8q-.5,0-1.11.13a1.5,1.5,0,0,1-1-.1.38.38,0,0,1-.18-.47A.37.37,0,0,1,626.08,7.57Zm6.07-3.18a5.52,5.52,0,0,0,.32-.5c.1-.18.21-.36.32-.54q-.34.34-.62.67c-.19.22-.35.4-.49.54q-.6.67-1.17,1.36a12.28,12.28,0,0,0-1,1.46A19.84,19.84,0,0,0,632.15,4.39Z"/><path class="a" d="M633.15,11.7q2.11-1,4.09-2.18a18,18,0,0,0,3.42-2.58l1.21-2.18q.57-1,1.24-2a5.86,5.86,0,0,1,1.61-1.66,4.14,4.14,0,0,1,.67-.28,2.51,2.51,0,0,1,.82-.15.82.82,0,0,1,.6.22q.22.22,0,.82a3.29,3.29,0,0,1-.49.89,9.58,9.58,0,0,1-.7.82c-.26.27-.52.52-.79.75a8.26,8.26,0,0,0-.7.69q-.7.67-1.44,1.34T641.2,7.47l-.39.72q-.18.35-.35.72l-.6,1.14q-.3.57-.67,1.14,1-.6,2.13-1.12t2.16-1a4,4,0,0,1,.85-.33,1.74,1.74,0,0,1,1,0,.91.91,0,0,1,.64.64,1.18,1.18,0,0,1-.13.94,4.69,4.69,0,0,1-.52.8l-.65.82a5.3,5.3,0,0,0-.57.87,1.92,1.92,0,0,0-.23.89,6.37,6.37,0,0,0,1.83-.52q1-.42,1.73-.82.27-.13.62-.35a3.65,3.65,0,0,1,.62-.32.33.33,0,0,1,.32,0,.56.56,0,0,1,.23.18.41.41,0,0,1,.07.29.34.34,0,0,1-.22.27,16.06,16.06,0,0,1-1.51.79A16.28,16.28,0,0,0,646,14l-.7.4a4.09,4.09,0,0,1-.82.37,2.17,2.17,0,0,1-.84.1,1,1,0,0,1-.72-.4.94.94,0,0,1-.22-.64,1.73,1.73,0,0,1,.17-.65,3.92,3.92,0,0,1,.37-.62l.39-.54q.37-.47.72-1a2.55,2.55,0,0,0,.42-1.11,1.8,1.8,0,0,0-.59,0,5.43,5.43,0,0,0-.65.18l-.65.25a5.09,5.09,0,0,1-.55.2q-.74.34-1.42.72t-1.36.82q-1.07.77-1.51,1.16l-.64.55A.92.92,0,0,1,637,14a.54.54,0,0,1-.49-.13.52.52,0,0,1-.23-.45.85.85,0,0,1,.2-.42,19.51,19.51,0,0,0,1.79-2.15,23.78,23.78,0,0,0,1.49-2.35q-.91.7-1.83,1.31T636.07,11q-.57.37-1.12.67l-1.12.6-.35.15a.32.32,0,0,1-.35-.05A.45.45,0,0,1,633,12,.35.35,0,0,1,633.15,11.7Zm10.63-7.61q.44-.44.89-.94A5,5,0,0,0,645.42,2a4.5,4.5,0,0,0-1.37,1A12.59,12.59,0,0,0,643,4.39l-.7,1.17.75-.74Z"/><path class="a" d="M648.61,11.7q.6-.3,1.26-.67a11.09,11.09,0,0,1,1.32-.64,3.44,3.44,0,0,1,1.24-1.26,5.08,5.08,0,0,1,1.71-.65,4.44,4.44,0,0,1,1.09,0,1.33,1.33,0,0,1,1,.5.53.53,0,0,1,.12.57,1.58,1.58,0,0,1-.4.57,4,4,0,0,1-.64.49l-.52.32a4.79,4.79,0,0,1-1.32.55,4.27,4.27,0,0,1-1.46.12h-.13a1.89,1.89,0,0,0,.6,1.14,2.93,2.93,0,0,0,1.11.59,4,4,0,0,0,1.32.15,10.09,10.09,0,0,0,1.26-.13,14.82,14.82,0,0,0,1.58-.42,14.44,14.44,0,0,0,1.51-.59l.69-.32a7.15,7.15,0,0,0,.65-.32.64.64,0,0,1,.49.07q.25.13,0,.44a.85.85,0,0,1-.47.37l-.54.2-1.68.74a28.56,28.56,0,0,1-3.05,1,5,5,0,0,1-1.36.08,3.93,3.93,0,0,1-1.27-.3,3.34,3.34,0,0,1-1.06-.72,2.64,2.64,0,0,1-.67-1.21c0-.18-.08-.36-.12-.54a1.07,1.07,0,0,1,0-.5,6.32,6.32,0,0,0-.72.39l-.62.39a2.47,2.47,0,0,0-.44.25.45.45,0,0,1-.54,0,.38.38,0,0,1-.18-.37A.31.31,0,0,1,648.61,11.7Zm3.42-.94a3.87,3.87,0,0,0,1.56-.4,4.89,4.89,0,0,0,1.32-.94,1.89,1.89,0,0,0-.92-.1,2.59,2.59,0,0,0-1.52.79A2.1,2.1,0,0,0,652,10.76Z"/><path class="a" d="M670.29,11.73l1.71-.84q.84-.4,1.71-.74a11.87,11.87,0,0,1,1.86-.5,10.79,10.79,0,0,1,1.93-.17.82.82,0,0,1,.57.18q.2.18,0,.62a.66.66,0,0,1-.6.33,11.63,11.63,0,0,0-1.76,0A5.45,5.45,0,0,0,674,11a2.82,2.82,0,0,0-.57.3,3.63,3.63,0,0,0-.55.45,1.42,1.42,0,0,0-.35.55.81.81,0,0,0,.07.64,1.21,1.21,0,0,0,1,.67,3.47,3.47,0,0,0,1.29,0,3.43,3.43,0,0,0,.77-.27l.6-.3a2.23,2.23,0,0,1,.49-.18.51.51,0,0,1,.45.15.71.71,0,0,1,0,.77q-.22.44-.35.74l-.47,1.11a26.2,26.2,0,0,1,1.91-1.79,15.22,15.22,0,0,1,2.14-1.53l.27-.2a3.14,3.14,0,0,1,.37-.25,1.58,1.58,0,0,1,.4-.17.38.38,0,0,1,.33.05c.16.11.21.22.17.34a1,1,0,0,1-.23.33q-.87.47-1.68,1a15.6,15.6,0,0,0-1.58,1.21,19.64,19.64,0,0,0-1.66,1.58,19.25,19.25,0,0,0-1.46,1.74l-.87,2q-.4,1-.8,2t-.87,2l-.25.49a4.35,4.35,0,0,1-.34.54,1.48,1.48,0,0,1-.44.4.86.86,0,0,1-.55.12.61.61,0,0,1-.52-.37,1.33,1.33,0,0,1-.07-.67,4.45,4.45,0,0,1,.17-.74q.12-.37.22-.6a17.39,17.39,0,0,1,1.59-2.93,30.73,30.73,0,0,1,2-2.7l1.14-3.25a8.78,8.78,0,0,1-1.29.25,5.62,5.62,0,0,1-1.29,0,2.88,2.88,0,0,1-1.09-.33,1.61,1.61,0,0,1-.72-.87,1.63,1.63,0,0,1,0-1.41l-.55.35a.57.57,0,0,1-.49.12.36.36,0,0,1-.4-.29A.34.34,0,0,1,670.29,11.73Z"/><path class="a" d="M681.38,11.7l1.39-.74q.69-.37,1.49-.84a1.62,1.62,0,0,1,.38-1.21,1.33,1.33,0,0,1,1.16-.54.68.68,0,0,1,.6.47.81.81,0,0,1-.13.77,2.25,2.25,0,0,1-.7.67,1.13,1.13,0,0,0,.57.13,3.07,3.07,0,0,0,1.47-.25A9.79,9.79,0,0,0,689,9.49q.6-.2.77.13a.8.8,0,0,1-.13.8q-.17.27-.38.69a6.27,6.27,0,0,0-.37.85,3,3,0,0,0-.17.84.76.76,0,0,0,.25.64q.17.2.89,0t1.93-.67q.4-.17.82-.39l.85-.42a1.75,1.75,0,0,0,.3-.15,1.6,1.6,0,0,1,.39-.17.57.57,0,0,1,.33,0c.1,0,.15.15.15.35a.39.39,0,0,1-.15.3,1.82,1.82,0,0,1-.33.23,2.37,2.37,0,0,1-.39.17l-.3.1-1.41.64-.92.5a7.67,7.67,0,0,1-1.12.5,3.32,3.32,0,0,1-1.11.2,1,1,0,0,1-.84-.44,1.1,1.1,0,0,1-.2-.52,2,2,0,0,1,0-.57,5.26,5.26,0,0,1,.13-.57c.05-.19.11-.37.15-.55l.27-1.11-.69.17a6.71,6.71,0,0,1-1.12.18,5.65,5.65,0,0,1-1.16,0,1.13,1.13,0,0,1-.82-.44l-.94.5-.75.44-.62.37a2,2,0,0,0-.47.25.4.4,0,0,1-.47.05.42.42,0,0,1-.2-.37A.35.35,0,0,1,681.38,11.7Z"/><path class="a" d="M694,11.73l1-.52q.62-.32,1.32-.62l1.36-.57,1.09-.44q.23-.1.84-.3t1.27-.37a9.89,9.89,0,0,1,1.26-.23,1.36,1.36,0,0,1,.85.1q.4.37.15.67a1,1,0,0,1-.62.37l-1.51.17a3.5,3.5,0,0,0-.79.32q-.32.18-.72.45-.17.13-.59.55t-.82.91a5.39,5.39,0,0,0-.64.94q-.23.45,0,.65a.75.75,0,0,0,.65.07,5.21,5.21,0,0,0,.92-.3q.47-.2.87-.42a5.21,5.21,0,0,0,.54-.32,7.25,7.25,0,0,0,1.58-1.27.44.44,0,0,1,.65-.08.56.56,0,0,1,.22.69.92.92,0,0,1-.23.4l-.32.32a1.15,1.15,0,0,0-.25.42q-.13.23-.07.35a.32.32,0,0,0,.23.15,3.67,3.67,0,0,0,1.17-.07,13.13,13.13,0,0,0,1.46-.37,14.93,14.93,0,0,0,1.49-.55q.74-.32,1.27-.59a1.39,1.39,0,0,0,.37-.18,2.82,2.82,0,0,1,.49-.25,1.3,1.3,0,0,1,.49-.1.35.35,0,0,1,.33.2.27.27,0,0,1,0,.37,1.2,1.2,0,0,1-.42.28l-.54.22-.4.17-1.14.52-1.17.52q-.4.17-.87.4a7.44,7.44,0,0,1-1,.4,5.46,5.46,0,0,1-1,.23,1.93,1.93,0,0,1-1-.1,1,1,0,0,1-.67-.65,1.72,1.72,0,0,1,0-.89l-.91.54-1.19.69a3.25,3.25,0,0,1-1.29.42,1.75,1.75,0,0,1-1.07-.27,1.11,1.11,0,0,1-.5-.94,2,2,0,0,1,.27-.85,7.45,7.45,0,0,1,.69-1.07,8.08,8.08,0,0,1,.92-1,4.71,4.71,0,0,1,.94-.7,6.48,6.48,0,0,0-.75.3q-.52.23-1.17.57l-1.37.69-1.32.65a.4.4,0,0,1-.33.05.46.46,0,0,1-.25-.17.37.37,0,0,1-.07-.27A.34.34,0,0,1,694,11.73Z"/><path class="a" d="M708.8,11.7q1.27-.54,2.51-1.11t2.48-1.11l.59-.28a.58.58,0,0,1,.59,0,.59.59,0,0,1,.3.33.46.46,0,0,1-.07.34,2.19,2.19,0,0,1-.25.33,2,2,0,0,1-.29.27,6,6,0,0,0-.65.77q-.29.4-.55.84a2.64,2.64,0,0,0-.23.44L713,13q-.24.67.12.72a1.85,1.85,0,0,0,.9-.17,6.61,6.61,0,0,0,1.09-.55l.67-.44.3-.23a2.39,2.39,0,0,1,.13-1.11,2.75,2.75,0,0,1,.67-1,4.44,4.44,0,0,1,.67-.54,1,1,0,0,1,.84-.13c.34.09.49.28.47.57a2,2,0,0,1-.23.8,4.89,4.89,0,0,1-.64.87,8.89,8.89,0,0,1-.8.77,2.42,2.42,0,0,0,.85.18,4.27,4.27,0,0,0,.92-.07q.47-.08.92-.2t.82-.25a3.23,3.23,0,0,0,.69-.2,6.26,6.26,0,0,0,.62-.3.36.36,0,0,1,.47.08.33.33,0,0,1,0,.45.86.86,0,0,1-.39.35,3.62,3.62,0,0,1-.6.25c-.21.07-.42.12-.64.17l-.52.1q-.67.17-1.36.28a5,5,0,0,1-1.36.05,1.65,1.65,0,0,1-1.07-.4,9.35,9.35,0,0,1-1,.72q-.49.32-1,.59a3.79,3.79,0,0,1-.91.4,2.47,2.47,0,0,1-1,.12,1.07,1.07,0,0,1-.74-.37q-.27-.32,0-1.09a10.63,10.63,0,0,1,1.21-2.71l-.92.34-.92.33a10.54,10.54,0,0,0-1,.44q-.47.23-.94.5l-.44.13q-.23.07-.4-.2A.39.39,0,0,1,708.8,11.7Z"/><path class="a" d="M722.11,11.7q.6-.3,1.26-.67a11.09,11.09,0,0,1,1.32-.64,3.44,3.44,0,0,1,1.24-1.26,5.08,5.08,0,0,1,1.71-.65,4.44,4.44,0,0,1,1.09,0,1.33,1.33,0,0,1,1,.5.53.53,0,0,1,.12.57,1.58,1.58,0,0,1-.4.57,4,4,0,0,1-.64.49l-.52.32a4.79,4.79,0,0,1-1.32.55,4.27,4.27,0,0,1-1.46.12h-.13a1.89,1.89,0,0,0,.6,1.14,2.93,2.93,0,0,0,1.11.59,4,4,0,0,0,1.32.15,10.09,10.09,0,0,0,1.26-.13,14.82,14.82,0,0,0,1.58-.42,14.44,14.44,0,0,0,1.51-.59l.69-.32a7.15,7.15,0,0,0,.65-.32.64.64,0,0,1,.49.07q.25.13,0,.44a.85.85,0,0,1-.47.37l-.54.2-1.68.74a28.56,28.56,0,0,1-3.05,1,5,5,0,0,1-1.36.08,3.93,3.93,0,0,1-1.27-.3,3.34,3.34,0,0,1-1.06-.72,2.64,2.64,0,0,1-.67-1.21c0-.18-.08-.36-.12-.54a1.07,1.07,0,0,1,0-.5,6.32,6.32,0,0,0-.72.39l-.62.39a2.47,2.47,0,0,0-.44.25.45.45,0,0,1-.54,0,.38.38,0,0,1-.18-.37A.31.31,0,0,1,722.11,11.7Zm3.42-.94a3.87,3.87,0,0,0,1.56-.4,4.89,4.89,0,0,0,1.32-.94,1.89,1.89,0,0,0-.92-.1,2.59,2.59,0,0,0-1.52.79A2.1,2.1,0,0,0,725.53,10.76Z"/></svg>